<?xml version="1.0" encoding="utf-8"?>
<svg viewBox="0 100 500 170" xmlns="http://www.w3.org/2000/svg">
  <defs>
    <clipPath id="a">
      <path d="M0 6.807A6.807 6.807 0 0 1 6.807 0H136v28H6.807A6.807 6.807 0 0 1 0 21.192V6.807Z" fill="#white"/>
    </clipPath>
    <linearGradient id="b" x1="28.313" y1="13.994" x2="0" y2="13.994" gradientUnits="userSpaceOnUse">
      <stop stop-color="#5ACCEC"/>
      <stop offset="1" stop-color="#4464FF"/>
    </linearGradient>
    <linearGradient id="c" x1="18.703" y1="12.173" x2="9.623" y2="12.173" gradientUnits="userSpaceOnUse">
      <stop stop-color="#5ACCEC"/>
      <stop offset="1" stop-color="#4464FF"/>
    </linearGradient>
  </defs>
  <g clip-path="url(#a)" transform="matrix(1, 0, 0, 1, 153.884003, 133.764755)">
    <path d="M0 14V6.281c0-1.665.668-3.262 1.859-4.44A6.388 6.388 0 0 1 6.347 0H21.96a6.38 6.38 0 0 1 4.08 1.47 6.25 6.25 0 0 1 2.166 3.723c.066.37.1.743.102 1.118.007 5.12.007 10.24 0 15.361a6.247 6.247 0 0 1-1.416 3.986 6.372 6.372 0 0 1-4.86 2.33H6.266a6.39 6.39 0 0 1-3.978-1.447 6.265 6.265 0 0 1-2.17-3.602A6.557 6.557 0 0 1 0 21.68V14Zm9.606 3.196h7.293a6.47 6.47 0 0 0 1.916-.262c1.546-.477 2.637-1.44 3.158-2.98a5.493 5.493 0 0 0 .166-2.955 4.492 4.492 0 0 0-.919-2.018 4.56 4.56 0 0 0-1.778-1.344 5.913 5.913 0 0 0-2.355-.494H6.065v13.7h3.54v-3.647Z" fill="url(#b)"/>
    <path d="M9.623 14.239v-4.125c.059 0 .108-.013.157-.013h6.502c.35-.004.698.035 1.038.116.331.061.636.222.872.461.235.239.391.543.446.873.09.43.086.875-.013 1.303-.058.298-.201.573-.412.793-.21.22-.48.376-.777.45-.419.11-.852.16-1.286.145H9.623v-.004Z" fill="url(#c)"/>
    <path d="M36.401 9.079a1.544 1.544 0 0 1 .453-1.127 1.577 1.577 0 0 1 1.131-.466 1.615 1.615 0 0 1 1.142.463 1.581 1.581 0 0 1 .469 1.13v.862c1.03-1.438 2.482-2.585 4.754-2.585 3.273 0 6.468 2.56 6.468 7.155v.052c0 4.569-3.168 7.154-6.468 7.154-2.324 0-3.777-1.149-4.754-2.421v4.884c0 .42-.169.822-.47 1.12a1.61 1.61 0 0 1-2.263 0c-.3-.298-.47-.7-.47-1.12l.008-15.101Zm11.17 5.484v-.052c0-2.664-1.822-4.413-3.988-4.413s-4.066 1.775-4.066 4.413v.052c0 2.637 1.9 4.412 4.066 4.412s3.988-1.697 3.988-4.412Z" style="fill: rgb(180, 187, 198);"/>
    <path d="M51.797 17.46v-.051c0-2.98 2.351-4.439 5.758-4.439a11.767 11.767 0 0 1 3.749.574v-.34c0-1.959-1.213-3.002-3.459-3.002a8.37 8.37 0 0 0-3.089.548c-.163.05-.332.075-.502.078a1.343 1.343 0 0 1-.948-.375 1.315 1.315 0 0 1-.4-.929c.006-.27.092-.533.247-.756.155-.223.372-.396.626-.498a12.085 12.085 0 0 1 4.488-.808c2.087 0 3.645.548 4.623 1.54 1.028.991 1.506 2.455 1.506 4.257v6.79a1.488 1.488 0 0 1-.455 1.082 1.525 1.525 0 0 1-1.102.432c-.925 0-1.56-.626-1.56-1.332v-.522c-.942 1.118-2.401 2.01-4.541 2.01-2.614 0-4.939-1.49-4.939-4.256l-.002-.002Zm9.563-.99v-.931a8.925 8.925 0 0 0-3.17-.56c-2.059 0-3.273.863-3.273 2.3v.044c0 1.332 1.188 2.09 2.72 2.09 2.11 0 3.723-1.201 3.723-2.952" style="fill: rgb(180, 187, 198);"/>
    <path d="M66.792 25.295a1.363 1.363 0 0 1-.725-.483 1.337 1.337 0 0 1-.279-.82 1.257 1.257 0 0 1 .368-.924 1.286 1.286 0 0 1 .926-.38c.2-.001.397.034.582.104.358.119.733.182 1.11.186.942 0 1.452-.391 1.98-1.462l.105-.287-5.176-11.446a2.11 2.11 0 0 1-.188-.756 1.503 1.503 0 0 1 .458-1.106 1.536 1.536 0 0 1 1.126-.435c.819 0 1.267.47 1.56 1.202l3.748 9.164 3.486-9.164c.264-.654.712-1.202 1.531-1.202a1.521 1.521 0 0 1 1.082.428 1.49 1.49 0 0 1 .45 1.062 2.8 2.8 0 0 1-.132.757l-5.097 12.09c-1.189 2.82-2.449 3.865-4.7 3.865a5.708 5.708 0 0 1-2.218-.39" style="fill: rgb(180, 187, 198);"/>
    <path d="M93.54 20.883a.603.603 0 0 1-.381.607.621.621 0 0 1-.251.045.646.646 0 0 1-.474-.184.63.63 0 0 1-.188-.468V18.46c-1.16 1.75-2.878 3.29-5.545 3.29-3.247 0-6.547-2.586-6.547-6.92v-.06c0-4.334 3.3-6.972 6.547-6.972 2.694 0 4.438 1.514 5.546 3.185V2.915a.604.604 0 0 1 .17-.465.618.618 0 0 1 .464-.187.643.643 0 0 1 .616.399c.032.08.047.167.043.253v17.968Zm-11.983-6.168v.052c0 3.5 2.449 5.745 5.274 5.745 2.826 0 5.493-2.323 5.493-5.719v-.052c0-3.421-2.694-5.718-5.493-5.718-2.93 0-5.274 2.114-5.274 5.692Z" style="fill: rgb(180, 187, 198);"/>
    <path d="M102.73 21.743c-3.539 0-6.592-2.794-6.592-6.946v-.052c0-3.865 2.746-6.946 6.389-6.946 3.776 0 6.18 3.081 6.18 6.892a.652.652 0 0 1-.635.602h-10.57c.237 3.315 2.637 5.249 5.274 5.249 1.926 0 3.273-.784 4.356-1.83a.562.562 0 0 1 .422-.186.625.625 0 0 1 .443.17.612.612 0 0 1 .192.43.627.627 0 0 1-.213.445c-1.318 1.304-2.825 2.167-5.253 2.167l.007.005Zm4.56-7.603c-.188-2.69-1.742-5.171-4.833-5.171-2.667 0-4.726 2.218-4.963 5.17h9.796Z" style="fill: rgb(180, 187, 198);"/>
    <path d="M110.148 14.823v-.052c0-3.725 3.014-6.972 6.866-6.972 2.324 0 3.856.993 5.071 2.116a.69.69 0 0 1 .188.47.634.634 0 0 1-.192.462.65.65 0 0 1-.467.19.671.671 0 0 1-.449-.157c-1.083-1.019-2.35-1.88-4.172-1.88-3.064 0-5.439 2.534-5.439 5.719v.052c0 3.211 2.448 5.774 5.545 5.774 1.742 0 3.142-.834 4.225-1.905a.587.587 0 0 1 .421-.209c.165.011.319.08.436.196a.67.67 0 0 1 .197.43.562.562 0 0 1-.158.393c-1.347 1.358-2.904 2.297-5.202 2.297-3.88 0-6.866-3.185-6.866-6.92" style="fill: rgb(180, 187, 198);"/>
    <path d="M130.033 21.743c-3.539 0-6.602-2.794-6.602-6.946v-.052c0-3.865 2.746-6.946 6.389-6.946 3.767 0 6.18 3.081 6.18 6.892a.646.646 0 0 1-.2.42.661.661 0 0 1-.433.182h-10.563c.238 3.315 2.637 5.249 5.274 5.249 1.927 0 3.274-.784 4.357-1.83a.562.562 0 0 1 .422-.186.632.632 0 0 1 .443.17.614.614 0 0 1 .192.43.644.644 0 0 1-.211.445c-1.319 1.304-2.826 2.167-5.256 2.167l.008.005Zm4.56-7.603c-.188-2.69-1.742-5.171-4.831-5.171-2.667 0-4.728 2.218-4.965 5.17h9.796Z" style="fill: rgb(180, 187, 198);"/>
  </g>
</svg>