<?xml version="1.0" encoding="UTF-8"?><svg id="a" xmlns="http://www.w3.org/2000/svg" viewBox="0 0 125.33119 101.19027"><path d="M50.595,101.19027C22.65215,101.19027,0,78.53811,0,50.59527S22.65215,.00026,50.595,.00026c7.99781-.02599,15.88515,1.86698,23,5.52,5.58904,2.88327,10.5966,6.7754,14.77,11.48l.9-.5c4.24293-2.22276,8.97037-3.35996,13.76-3.31h1.22c9.26,.33,15.53,2.85,17.17,3.79l1.73,1c1.53019,.90161,2.37587,2.62836,2.15,4.39l-.11,.85v.18c-.87,12.93-6.57,22.82-16.06,27.84-.58,.3-1.11,.56-1.64,.8-2.0472,.92535-4.19982,1.59699-6.41,2-1.83307,26.53475-23.88203,47.12921-50.48002,47.14999Z" style="fill:#fff;"/><path d="M96.725,50.62027c-.00552,25.4769-20.66311,46.12552-46.14,46.12S4.45947,76.07716,4.465,50.60026c.00552-25.47299,20.65701-46.12,46.13-46.12,25.4769,0,46.13,20.65311,46.13,46.13v.01" style="fill:#0083ff;"/><rect x="46.555" y="11.49026" width="5" height="5" rx="1.8" ry="1.8" style="fill:#fff;"/><rect x="46.555" y="18.49027" width="5" height="5" rx="1.8" ry="1.8" style="fill:#fff;"/><rect x="25.555" y="37.49027" width="5" height="5" rx="1.8" ry="1.8" style="fill:#fff;"/><rect x="33.555" y="37.49027" width="5" height="5" rx="1.8" ry="1.8" style="fill:#fff;"/><rect x="38.555" y="25.49027" width="12" height="5" rx="1.8" ry="1.8" style="fill:#fff;"/><rect x="39.555" y="37.49027" width="5" height="12" rx="1.8" ry="1.8" style="fill:#fff;"/><rect x="57.555" y="37.49027" width="16" height="5" rx="1.8" ry="1.8" style="fill:#fff;"/><rect x="30.555" y="31.49027" width="16" height="5" rx="1.8" ry="1.8" style="fill:#fff;"/><rect x="67.555" y="31.49027" width="5" height="5" rx="1.8" ry="1.8" style="fill:#fff;"/><rect x="54.555" y="45.49027" width="12" height="5" rx="1.8" ry="1.8" style="fill:#fff;"/><rect x="54.555" y="51.49026" width="5" height="5" rx="1.8" ry="1.8" style="fill:#fff;"/><rect x="54.555" y="58.49026" width="5" height="5" rx="1.8" ry="1.8" style="fill:#fff;"/><rect x="53.555" y="14.49026" width="5" height="16" rx="1.8" ry="1.8" style="fill:#fff;"/><rect x="47.555" y="42.49027" width="5" height="16" rx="1.8" ry="1.8" style="fill:#fff;"/><rect x="60.555" y="22.49027" width="5" height="12" rx="1.8" ry="1.8" style="fill:#fff;"/><path d="M82.965,43.22027l32-18.54s.7-6.63-11.68-6.5-19.4,8.23-20.29,15.51,0,9.53,0,9.53" style="fill:#006e36;"/><path d="M115.525,23.87026l-32,18.54s-.7,6.63,11.68,6.5,19.4-8.23,20.33-15.51,0-9.53,0-9.53" style="fill:#00b22b;"/><path d="M119.195,20.85026c-.79-.45-6.32-2.89-15.11-3.2-4.41735-.22505-8.81489,.73109-12.74,2.77-1.21943,.64309-2.37758,1.39622-3.46,2.25-7.93,6.25-8.14,14-8.67,18.41l-6.28,3.07c-1.32021,.57869-1.92132,2.11805-1.34263,3.43825,.40907,.93324,1.32384,1.54309,2.34263,1.56175,.39796,.00045,.79094-.0884,1.15-.26h.09l1.43-.76,2.89-1.52,1.4-.67c4.2835,2.4244,9.07411,3.81467,13.99,4.06,3.706,.17423,7.40215-.51023,10.8-2,.47-.21,.93-.44,1.38-.67,13-6.9,13.59-22.61,13.73-24.5l.13-1-1.73-.98Zm-3.77,4.54v.07c-.9,5-3.55,13.87-11.18,17.91l-.2,.1c-2.92962,1.47182-6.17187,2.2129-9.45,2.16-2.28036-.10459-4.53674-.51148-6.71001-1.21l-1.9-.81,2.09-1.09,7.81001-4.15c1.00011-.51931,1.63678-1.54334,1.66-2.67,.1237-.31818,.1549-.66485,.09-1-.03828-.09885-.08167-.19565-.13-.29v-.08h0c-.58126-.86186-1.5844-1.34045-2.62-1.25-.55344-.01997-1.10223,.10774-1.59,.37l-7.8,4.11-1.48,.78s1.3-10,8.32-13.49c.55-.28,1-.68,1.6-1,2.9501-1.5005,6.24574-2.19069,9.55-2,3.81285,.20319,7.55857,1.08712,11.06,2.61l.51,.22,.44,.18-.07,.53001Z" style="fill:#fff;"/><path d="M21.125,70.11026h3.88c3.58,0,5.93,2.09,5.93,5.19s-2.4,5.15-5.93,5.15h-3.88v-10.34Zm3.89,1.89h-1.53v6.54h1.53c1.76395,.17723,3.33759-1.10906,3.51482-2.87302,.01325-.13189,.01832-.26447,.01518-.39698,0-2-1.44-3.23-3.53-3.27h0Z" style="fill:#fff;"/><path d="M37.625,69.76027c2.95343-.20073,5.51039,2.03078,5.71112,4.98421,.01257,.18499,.01554,.3705,.00888,.55579,0,3.27-2.31,5.5-5.72,5.5s-5.74-2.23-5.74-5.5c-.107-2.95831,2.20445-5.44324,5.16276-5.55024,.19246-.00696,.38515-.00354,.57724,.01024Zm0,8.94c1.90279,.09941,3.52589-1.36252,3.6253-3.2653,.09941-1.90279-1.36252-3.52589-3.2653-3.6253s-3.52589,1.36252-3.6253,3.2653c-.00305,.05839-.00462,.11684-.0047,.1753-.12169,1.77972,1.22241,3.32112,3.00214,3.44282,.08915,.0061,.17852,.00848,.26786,.00718Z" style="fill:#fff;"/><path d="M44.775,80.45026v-10.34h2.44v8.25h4.32v2.09h-6.76Z" style="fill:#fff;"/><path d="M52.805,80.45026v-10.34h2.44v8.25h4.32v2.09h-6.76Z" style="fill:#fff;"/><path d="M70.385,80.45026h-2.57l-.61-1.88h-4.15l-.57,1.88h-2.6l3.49-10.34h3.53l3.48,10.34Zm-6.81-3.62h3.14l-1.57-4.63-1.57,4.63Z" style="fill:#fff;"/><path d="M71.385,70.11026h5c2.4,0,4.06,1.4,4.06,3.45,.00468,1.37947-.93198,2.58433-2.27,2.92l2.51,3.92001h-2.7l-2.10001-3.62h-2.05v3.62h-2.45v-10.29Zm2.4,1.83v3.14h2.18c.87814,.22195,1.76992-.31,1.99187-1.18813,.22195-.87813-.31-1.76992-1.18813-1.99187-.26377-.06667-.53998-.06667-.80374,0l-2.18,.04Z" style="fill:#fff;"/></svg>