<?xml version="1.0" encoding="UTF-8"?><svg id="a" xmlns="http://www.w3.org/2000/svg" viewBox="0 0 215.2789 121.25467"><g><path d="M95.45919,100.99098l-.00134-46.32039,9.50699-1.1716,1.46953,7.26042c3.11084-4.98432,7.61874-7.47649,13.52504-7.47649,1.2387,0,2.24791,.05771,3.02495,.17312l-.17312,9.46404c-1.15147-.17312-2.34722-.25901-3.58592-.25901-4.17776,0-7.29665,1.10852-9.35534,3.32691-2.06137,2.21839-3.08937,5.30104-3.08937,9.24797v25.75502h-11.32142Z"/><path d="M144.67301,101.85391c-7.0014,0-12.60441-1.19575-16.81035-3.58726l1.16623-8.51254c1.90167,1.03739,4.32136,1.96608,7.26042,2.78741,2.93906,.82133,5.61776,1.23199,8.03746,1.23199,2.50692,0,4.45825-.46837,5.85531-1.40511,1.39706-.9354,2.11102-2.31233,2.13921-4.12676,0-1.64265-.65491-2.93906-1.96608-3.88922-1.31117-.95016-3.81004-2.13115-7.49796-3.54298-1.26688-.46166-2.08821-.76362-2.46264-.90856-4.37907-1.69902-7.53419-3.59263-9.46404-5.68218-1.92985-2.08821-2.89611-4.91856-2.89611-8.49106,0-4.32136,1.56213-7.63485,4.68908-9.93912,3.12426-2.30428,7.48185-3.45709,13.07144-3.45709,6.0499,0,11.36571,1.13805,15.94608,3.4128l-2.80888,7.82273c-4.52401-2.10297-8.8306-3.15513-12.92113-3.15513-2.27609,0-4.05563,.38248-5.33728,1.1461-1.28164,.76362-1.92314,1.9218-1.92314,3.47856,0,1.46819,.62002,2.61429,1.85872,3.43561,1.2387,.81998,3.65839,1.89361,7.26176,3.2182,.11407,.02952,.4885,.1597,1.12328,.38919,.63344,.23083,1.12328,.41872,1.46953,.56231,4.34954,1.58495,7.54761,3.47856,9.59288,5.68218,2.04526,2.20228,3.0679,5.07692,3.0679,8.6199-.02818,4.75349-1.64131,8.42665-4.83938,11.0208-3.19807,2.59281-7.7355,3.88922-13.61228,3.88922Z"/><polygon points="194.66203 73.94375 214.02409 53.49497 200.54065 53.49497 181.22338 73.39217 181.22338 38.00921 169.90196 40.11755 169.90464 100.9883 181.22338 100.9883 181.22606 100.9883 181.22606 88.13377 187.47056 81.53884 201.57939 100.98696 215.2789 100.98696 194.66203 73.94375"/></g><g><g><g><path d="M30.8829,46.69118V2.60449s-14.26288,7.10703-14.26288,22.21836,14.26288,21.86833,14.26288,21.86833Z" style="fill:#006e3c;"/><path d="M30.8829,2.60449s14.26288,7.10703,14.26288,22.21836c0,15.11133-14.26288,21.86833-14.26288,21.86833V2.60449Z" style="fill:#00b43c;"/></g><g><path d="M64.17834,67.43212l19.59879-11.14629s-6.76547-4.54373-13.48323-.72319c-6.71776,3.82055-6.11556,11.86947-6.11556,11.86947Z" style="fill:#006e3c;"/><path d="M83.77713,56.28583s.44659,8.13743-6.27117,11.95797c-6.71776,3.82055-13.32763-.81168-13.32763-.81168l19.59879-11.14629Z" style="fill:#00b43c;"/></g></g><path d="M84.71704,54.51134c-.34536-.18708-8.61271-4.54741-15.59213-.51084-5.59794,3.23067-6.71319,9.72077-6.93625,12.41899l-2.58308,1.48943c-1.28798-1.26633-3.05079-2.05063-4.99352-2.05063-1.92117,0-3.66961,.7627-4.95035,2.00746l-11.83622-6.8355c.13671-.55401,.20865-1.12966,.20865-1.71963,0-3.25948-2.18734-6.01528-5.1734-6.87151v-4.20921c3.45376-2.21615,14.40493-10.26766,14.40493-23.08963C47.2657,10.30362,32.55137,1.02896,31.92539,.64759l-1.04332-.64759-1.03612,.64759c-.63314,.38137-15.34747,9.65603-15.34747,24.49267,0,12.82197,10.95117,20.87347,14.40489,23.08963v4.20921c-2.98601,.85624-5.1734,3.61204-5.1734,6.87151,0,.58997,.07198,1.16563,.20869,1.71963l-11.83622,6.8355c-1.28078-1.24477-3.02922-2.00746-4.95035-2.00746-3.94299,0-7.1521,3.2091-7.1521,7.1521,0,3.25227,2.18734,6.00803,5.1662,6.87147v14.20345c-2.97885,.86344-5.1662,3.61924-5.1662,6.87147,0,3.94308,3.2091,7.15214,7.1521,7.15214,2.09385,0,3.979-.89941,5.28134-2.34566l11.50522,6.63401c-.13671,.54685-.20869,1.1225-.20869,1.71248,0,3.94299,3.2091,7.14494,7.1521,7.14494s7.1521-3.20195,7.1521-7.14494c0-.58997-.07194-1.16563-.20865-1.71248l11.50522-6.63401c1.30234,1.44626,3.1875,2.34566,5.28134,2.34566,3.94299,0,7.1521-3.20906,7.1521-7.15214,0-3.25223-2.18739-6.00803-5.1662-6.87147v-14.20345c2.97881-.86344,5.1662-3.6192,5.1662-6.87147,0-.57561-.07198-1.13686-.19429-1.66931l2.57592-1.48222c1.51099,.71232,4.48264,1.87795,7.86442,1.87795,2.05784,0,4.26679-.4317,6.3966-1.6621,6.97937-4.02933,7.33914-13.36881,7.35354-13.75734l.03597-1.2232-1.07929-.58281Zm-28.11906,21.00298c-.54685,.43174-1.23761,.69076-1.9859,.69076-.39573,0-.7699-.07198-1.12246-.20865-.30939-.10795-.59722-.27342-.84904-.47491-.62603-.48927-1.07213-1.216-1.18724-2.05063-.02161-.15112-.03597-.30223-.03597-.46051,0-.13671,.0072-.27342,.02877-.40293,.14391-1.17283,.92817-2.15138,1.9931-2.56871,.36697-.14391,.7627-.22305,1.17283-.22305,.4389,0,.86344,.08634,1.24477,.25182,1.14407,.48211,1.94993,1.61893,1.94993,2.94288,0,.17988-.0144,.35256-.04317,.52524-.13671,.79866-.56125,1.49663-1.16563,1.9787Zm1.2088,25.44245c0,1.76289-1.43185,3.19474-3.1947,3.19474-.61162,0-1.18724-.17268-1.66931-.47491-.91381-.56125-1.52539-1.56861-1.52539-2.71983,0-.03592,0-.05753,.0072-.09354v-.0072c.00716-.34536,.07194-.66911,.18704-.97855,.20149-.56841,.56125-1.06489,1.02896-1.43185,.40293-.32375,.89221-.54685,1.42465-.63319,.17268-.03597,.35976-.05033,.54685-.05033,.74829,0,1.43905,.25902,1.9859,.69072,.73389,.58281,1.2088,1.48938,1.2088,2.50394Zm-5.1662-6.87147c-.97139,.28063-1.85639,.75549-2.61188,1.39588l-12.13125-7.00098v-.0072c.08634-.45331,.13671-.92817,.13671-1.41029,0-.69072-.1007-1.35987-.28778-1.99306l11.94412-6.88587c.82027,.78426,1.82763,1.37428,2.95009,1.69807v14.20345Zm-21.75852,23.21198c-1.59733,0-2.92128-1.17292-3.15869-2.70543-.02161-.15827-.03601-.31664-.03601-.48211,0-1.33831,.82747-2.48242,1.9931-2.95724,.37417-.15107,.7771-.2375,1.2016-.2375,.42454,0,.82747,.08643,1.20164,.2375,1.16563,.47482,1.99306,1.61893,1.99306,2.95724,0,.16548-.01436,.32384-.03597,.48211-.23746,1.53251-1.56136,2.70543-3.15873,2.70543Zm-7.00818-28.79551l-12.13121,6.98662c-.75549-.64039-1.6477-1.12246-2.61909-1.40309v-14.20345c1.13686-.3238,2.15138-.92817,2.97885-1.72684l11.92256,6.88583c-.19429,.64039-.29503,1.31675-.29503,2.02187,0,.48932,.05037,.97139,.14391,1.43189v.00716Zm-13.52709,12.455c0,1.15122-.61158,2.15858-1.52539,2.71983-.48207,.30223-1.05773,.47491-1.66931,.47491-1.76285,0-3.1947-1.43185-3.1947-3.19474,0-1.01456,.47491-1.92112,1.2088-2.50394,.54685-.4317,1.23761-.69072,1.9859-.69072,.18708,0,.37417,.01436,.55405,.05033,.53244,.09354,1.01451,.31659,1.41745,.63319,.46771,.36697,.82747,.86344,1.02892,1.43185,.11515,.30944,.17988,.64039,.18708,.98575,.0072,.02881,.0072,.06482,.0072,.09354Zm-6.3894-27.94639c0-1.76285,1.43185-3.1947,3.1947-3.1947,.41014,0,.80587,.07914,1.17283,.22305,1.04332,.41014,1.82042,1.35992,1.9859,2.51114,.02156,.15112,.03597,.30219,.03597,.46051,0,.15827-.0144,.30939-.03597,.46051-.11515,.83463-.56125,1.56136-1.18724,2.05063-.23741,.18708-.50368,.34536-.79146,.45331-.36697,.15112-.7627,.23025-1.18003,.23025-.74829,0-1.43905-.25902-1.9859-.69076-.73389-.58281-1.2088-1.48943-1.2088-2.50394Zm24.94597-16.21095c.54685-.4245,1.23761-.68352,1.9787-.68352,.74113,0,1.43189,.25902,1.9787,.68352,.62598,.49648,1.05773,1.216,1.18003,2.04347,.02161,.15112,.03597,.30939,.03597,.46771,0,1.01451-.47487,1.92112-1.216,2.50394-.23741,.18708-.51084,.34536-.79866,.45331-.36697,.15107-.7627,.23025-1.18003,.23025-.41729,0-.81307-.07918-1.17999-.23025-.28783-.10795-.56125-.26622-.79871-.45331-.74109-.58281-1.216-1.48943-1.216-2.50394,0-.15832,.0144-.31659,.03601-.46771,.12231-.82747,.55401-1.547,1.17999-2.04347Zm5.16624,30.39284c-.02881,.97134-.49648,1.82038-1.20884,2.38163-.14387,.1079-.30219,.21585-.46046,.30219-.45331,.24461-.97139,.38133-1.51823,.38133-.53244,0-1.04328-.13671-1.48938-.37412-.17272-.08634-.3382-.19429-.48932-.30939-.71953-.56845-1.18719-1.43905-1.2088-2.41764-.0072-.02877-.0072-.06473-.0072-.09354,0-.28778,.03601-.56121,.11515-.82743,.17268-.67636,.56841-1.25917,1.10085-1.68371,.3454-.26622,.74834-.46767,1.18724-.58281,.25182-.06473,.51804-.10074,.79146-.10074,.28783,0,.56125,.03601,.82747,.11515,.42454,.10795,.81307,.30939,1.15122,.56841,.51808,.41734,.91381,.98575,1.09369,1.64774,.07914,.27342,.12231,.56121,.12231,.8634,0,.04317,0,.08638-.00716,.12235v.0072Zm13.59902-15.90876c-.13671,.55405-.20865,1.12966-.20865,1.72688,0,.61158,.07914,1.2016,.22305,1.77005l-12.05207,6.9434c-.7843-.70512-1.72688-1.23756-2.7702-1.53259v-14.01636c1.13686-.3238,2.15142-.92102,2.97885-1.71968l11.82902,6.8283ZM18.45587,25.14026c0-10.51227,9.2675-18.12487,12.42619-20.41296,3.16593,2.28093,12.42624,9.86472,12.42624,20.41296,0,8.79984-6.51171,15.17483-10.44754,18.22562V26.74483c0-1.09369-.885-1.9787-1.9787-1.9787s-1.9787,.885-1.9787,1.9787v16.62825c-3.94299-3.04358-10.4475-9.40422-10.4475-18.23282Zm7.46869,39.31494c.82743,.79866,1.84199,1.39588,2.97881,1.71968v14.01636c-1.02892,.29503-1.95709,.81307-2.74139,1.51103l-12.06643-6.96501c.13671-.55405,.20865-1.12966,.20865-1.72688s-.07194-1.17283-.20865-1.72688l11.82902-6.8283Zm-11.73548,37.75362c.07914-.40298,.1151-.82756,.1151-1.25206,0-.76265-.12231-1.49658-.34536-2.18014l11.75704-6.77793c.85624,.89941,1.95713,1.58292,3.1875,1.93553v13.30408c-1.13682,.33095-2.15858,.93533-2.98601,1.7412l-11.72827-6.77068Zm21.65773,6.77068c-.82747-.80587-1.84919-1.41024-2.98605-1.7412v-13.30408c1.23761-.3526,2.33846-1.03612,3.1947-1.94273l11.74988,6.77793c-.22305,.69076-.34536,1.42469-.34536,2.18734,0,.4245,.03597,.84908,.1151,1.25206l-11.72827,6.77068Zm40.58131-42.32976c-2.62629,1.51103-5.59074,1.24481-7.82845,.64039l3.9574-2.28089c.94258-.53964,1.27353-1.75565,.72673-2.69822-.54685-.94978-1.75565-1.27358-2.70543-.72673l-3.93583,2.26653c.59722-2.23056,1.84919-4.92158,4.46107-6.42541,3.77751-2.18014,8.43283-.79866,10.56985,.05037-.3238,2.27373-1.43905,6.97942-5.24533,9.17396Z"/></g></svg>