<svg xmlns="http://www.w3.org/2000/svg" xmlns:xlink="http://www.w3.org/1999/xlink" viewBox="0 0 256.11 89.03"><defs><style>.cls-1{fill:none;}.cls-2{fill:#ceafd6;}.cls-3{clip-path:url(#clip-path);}.cls-4{fill:#ceafd6;}.cls-5{fill:#bed2ed;}</style><clipPath id="clip-path"><path class="cls-1" d="M184.51,69.48,154.17,99.71h115.3L239.42,69.48Z"/></clipPath></defs><title>Recurso 16</title><g id="Capa_2" data-name="Capa 2"><g id="Capa_1-2" data-name="Capa 1"><polygon class="cls-2" points="172.41 61.36 187.81 42.27 172.52 23.41 180.55 23.41 192.2 37.94 203.91 23.41 211.83 23.41 196.59 42.16 211.99 61.36 204.02 61.36 192.2 46.83 180.27 61.36 172.41 61.36"/><path class="cls-2" d="M211.39,42.38a18.45,18.45,0,0,1,5.88-13.91q5.88-5.61,15.15-5.61t15.15,5.61a18.45,18.45,0,0,1,5.88,13.91,18.47,18.47,0,0,1-5.85,13.93q-5.91,5.58-15.18,5.58t-15.15-5.61a18.44,18.44,0,0,1-5.88-13.91M222.24,52a15.57,15.57,0,0,0,20.47,0,12.87,12.87,0,0,0,3.93-9.62,12.88,12.88,0,0,0-4-9.62,15.41,15.41,0,0,0-20.44,0,12.88,12.88,0,0,0-4,9.62,12.64,12.64,0,0,0,4,9.6m5.37-9.6a4.54,4.54,0,0,1,1.33-3.31,5.19,5.19,0,0,1,7,0,4.82,4.82,0,0,1,0,6.64,4.72,4.72,0,0,1-3.5,1.33A4.58,4.58,0,0,1,229,45.69a4.39,4.39,0,0,1-1.36-3.31"/><g class="cls-3"><path class="cls-4" d="M211.59,6.46a38.06,38.06,0,1,1-38.06,38.06A38.1,38.1,0,0,1,211.59,6.46m0-6.46a44.52,44.52,0,1,0,44.52,44.52A44.52,44.52,0,0,0,211.59,0"/></g><polygon class="cls-5" points="0 22.82 6.36 22.82 6.36 54.76 25.53 54.76 25.53 61.17 0 61.17 0 22.82"/><path class="cls-5" d="M56.18,52.43H40.88l-4.42,8.74H29.33L48.5,22.82,67.68,61.17H60.55ZM44,46.08H53L48.5,37.13Z"/><polygon class="cls-5" points="61.42 22.82 93.42 22.82 93.42 29.23 80.65 29.23 80.65 61.17 74.24 61.17 74.24 29.23 61.42 29.23 61.42 22.82"/><path class="cls-5" d="M113.43,52.43H98.71l-4.42,8.74H87.15l19.18-38.35,19.18,38.35h-7.13Zm-11.57-6.35h8.36l-3.89-8.95Z"/><polygon class="cls-5" points="135.66 38.24 135.66 61.17 129.31 61.17 129.31 22.82 148.48 42 167.71 22.82 167.71 61.17 161.25 61.17 161.25 38.24 148.48 51.06 135.66 38.24"/></g></g></svg>