<svg id="Layer_1" data-name="Layer 1" xmlns="http://www.w3.org/2000/svg" viewBox="0 0 595.28 595.28"><defs><style>.cls-1{fill:none}.cls-2{fill:#e66c0a}</style></defs><path class="cls-1" d="M342.16 25.56a1.17 1.17 0 0 0 .72.19c-.18.01-.69-.29-.72-.19ZM339.36 25.52c-.08-.09-.06-.17-.09-.29-.01.18-.27.55.09.29ZM338.08 25.59c.07-.1.48-.09.16-.28-.07.1-.65.18-.16.28ZM338.49 24.31h-.4c-.17.24.44.21.4 0ZM333 22.51l-.28.76c.14.17.19-.73.28-.76ZM343 26.07l.32.19c-.08-.08-.32-.16-.32-.19ZM343.85 24.65l-.33-.07c.29.14.14.21.33.07ZM344.48 25.94c.06-.1-.08-.06-.2-.07a.53.53 0 0 1 .2.07ZM327.19 24.17c.4.29.21-.5.57-.18-.04-.49-.45-.69-.57.18ZM292.42 21.54a.56.56 0 0 0 .28.09 2.29 2.29 0 0 0-.28-.09ZM341.85 24.15c.08.1.16-.27.19-.16.21-.25-.78.09-.19.16Z"/><path class="cls-1" d="M292.42 21.54c-.13-.19 1.75-.51 2.29-1-.52 1 .84.82 1.35 0 .72.75 0 .36-.19.88.62.67 1.47-1.23 1.29-.2 1.28-.76-.67 1.26.82.2.15 1.34 2-.72 1.53.62.22-.73 1.82-.74 2.18 0 .15-1.26 2.41-1.2 1.38.57 1.89-2 3.33-.81 4.76-1.89-.33.88 1.19 3.22.82.7 1.42.16 1.77 1.49 2.23.28 1.59-.09 1.36.32 2.17-.67 1.87 1 1.88.77 3.34-.86-.39 1.82-.43.87.85 2 2.14-2.47 2.54-1.15.83.11 2-.25 2-1 3.17-.07 2.4.09 1.67.7 3.38-1.74-.05.93-.78 3.94-.69 1.34-.18.68-1 1.52 0 1.12.8.68.5-.51.75-.91.68 1.66.29.64 1.05.09-.55 2.35.61-1.05.42 1.31 2.38-.54 1.56-.9 4.49-2.15-4.24 3.85.14 3.13-1.55 3 1-2.48 1.75-.13 1.54.06 2.14.3 1.06-.38 2-2.4 1.82 1.54-.78 2.61.67 2.63.87-.6 2.7-1.63 3.66.42.75-.32.32 0 .14.35.73-.28 1.36-.76 0-.49.68-1.64 2.53-.62 3.56-.69 0 1.44-.93.65-1.36.62 1.79 1.12 5.52.76 5.08.16-.72.4-1.63-.79-2-.79.41 1.65-1.07-.48-2-.81-3-.55-5.76-2.58-9.23-2.53-3.32-1.1-3.22-.94-5.9-.47 0-.57-7.45-1.21-7.39-2.72-1.63 2.09-1 .55-3.12 1.07-1.86-.09-2.39.27-4-.2-.22 1.24-.6-3.42-1.24-.73.24-1.92-.82.07-1.72-.53.34 1.58-1.78-.39-1.47.29-3.13.55-5.37.22-8.33 0-1.72-.18-3.18 0-2.84 1.74-.93-1.4-3.51-1.17-5.8-1-.57 1-16.68 2.56-19.42 4.87 12.76-1.42 17.76-3.21 22.5-1.58ZM344.23 25.86c0-.24 0-.29-.39-.27-.05.22.16.22.39.27ZM343.78 26.06c-.15.12-.24.18 0 .28ZM401.46 543.53c-1.91.26 0 1.21-1.82 1.3-.28.55 1.45-.07 1.15.43.92-.82 1.57-.79.67-1.73ZM301.12 574.64a5.88 5.88 0 0 0 1.06 0c-.14-.06.08-.11.11-.11s-.29.01-1.17.11ZM292.11 574.89c1.83-.17 4.18-.54 5.47-.61a27.07 27.07 0 0 0-5.47.61ZM298 573.91a4.92 4.92 0 0 0-1.62.22c.33-.13 1.62-.13 1.62-.22ZM479.41 499.88l-.9-.64-.23.17 1.13.47zM486.81 490.07c.77-.59 1.84-.28.91-1a8.37 8.37 0 0 0-.91 1ZM303.51 573.94c-2.23.3-1.86.51.37.24-.67-.02-1.53.02-.37-.24ZM280.14 575.66h-.44.44Z"/><path class="cls-1" d="M302.54 22.44c-.3.07-.46-.59-.43 0 .13.07.29-.03.43 0ZM305.51 22l-.11-.54s-.01.62.11.54ZM289 575.11l1.32-.21-1.16.16-.16.05zM269.31 23.1l.28-.1ZM309.38 22.7a.25.25 0 0 0-.21-.36ZM268.81 23.3l.24-.08a1.35 1.35 0 0 0-.24.08ZM301.32 574.66c-.89.08.6.08 0 0ZM351.45 28.5a.46.46 0 0 0-.14-.05c-.2-.17-.03.11.14.05ZM352.85 29.71a.64.64 0 0 0 .36.17c-.09-.02-.35-.22-.36-.17ZM353 29.61a3.08 3.08 0 0 0 1.2.6c-.38-.21-.93-.41-1.2-.6ZM352.19 28.74c0 .1-.23-.07.21.15-.06-.07-.1-.07-.21-.15ZM351.45 28.5c.09.03.13.07 0 0ZM351.75 28.47c0-.07-.26-.2-.16-.19-.49-.17-.02.22.16.19ZM351.78 28.81c.5.23.48.08 0-.16.11.11.29.23 0 .16ZM352.37 28.85c.19.11-.1-.12 0 0ZM66.86 429.56h.3a.24.24 0 0 0-.3 0ZM47 410.77a3.26 3.26 0 0 0 .71 0 2.65 2.65 0 0 0-.71 0Z"/><path class="cls-1" d="M82.36 461.24c-2.39-.6-.57-1.43-.72-2.37-2.86-4.71-2.22-3.17-3.63-7.43 1.2-2.09-1.85-3.43-3.09-3.06-.15-2.38-1.92-3.15-1.8-5.46 2.26-2.7-3.14 1.54-1.29-1.51-1.08-.31-3.57-.66-1.71-1.71-1.77.53-1.87-.61 0-.89-2.91.2-4.24-8.54-3.27-9.25-4.27.23-1.42-.21-4-2.4-.14-1.76-1.59-.23-1.53-1.73.4-.83 0-2.19-.72-1.43-2.56-1.48 4.11-4.72.08-3.85.52-.38 1.53-.5 1.43-1-4-1.17-1.23-2.95-5-3.91 1.08-.38-.3-5.41-1.7-4.64 2.24-1.23-2.08-1.81-.39-2.35-.37-2.57-.5-7.67-4.82-5.27 2.24-1.7 1.22-7.49-1-8.52 1-.45 1.21-.27-.15-.57.11-1.23 1.73.47.94-.64-3-2.15-4.31-9-5.68-14.44-2.57-2.57-4.51-15.9-4.11-7.78.19 7 1.93 9.89 2.31 16.63 2.73 1.9.89 1.46 1.08 4.56 1.44-.13.49-2.42 1.79-.45-2.19 1-.13 5-.42 2.66 2.72 1.38.48.92.7 2-1.63-.2-.58-2-1.63-.42 2.35 1.45 0 1.37.46 3.43 2.14-2.46.66.08.29 1.59.45-1.15-.25.73 2.16 1-2.19 1.11 1 .21.62 1.21-1.61-.3-.25.44-1.56.55 5 2.56-2.74 1.21 2.1 3.05-.85.28.27 1.31-1.74.73.83.37 1.22 1.09.15 1.43-.07.56 2.13 1.54 1.17 1.75 1.1.09-.1 1.28 1.28 2.15-2 2.06-.12-.08 1 .56-1.82 2 .62.21.34 2.32-4.83-.68 0 2.71.25 1.93.69.24 2.86.8.75 1 1.38.32.93 1.62 1.17 1.55 1.8-.44 1.57 1.48.29.44-2.06 1.49.77.18-.1 1.83-.59-.39-1-.26-1.2-1.08-.87-1.63-.88.66 0 1.4-.11 2.94 1.86-2.71 2.17 1.13-2.69 1 2.75-.16-.83 1.87.77-.62 4.07.87 2.22 1.62 1.88-.31 3.37.66 1.56 2.35 1.42.61 2.8.12 2 1.6 1.18-1.65 4.45-.83.53 0-.35 2.06-1 1.78 4.23 2.92-1.74 1.23-5.64-.57-2.61.92-.84.4-.5.53-.7 1 2.23-1.47 2.38 1.79.93.29-.85.91 2.92.25 1.22.69-.21 2.3 3.85 3 .76 3.66 4.68-1.29 7.22-.26-.32.77 2.15 1.79 3.63-1.06 1.92 2 4.81-2.19-2.43 1.17 2.34 0-4 2.07.17 1.42 2.27 1.9-5.7 2.71 3.39-.55 3 .89 1.57.32-12.06 2.74-3.58 3.09-5-1.35 5.91-1.67-.38.42.4-.09 1.1.38.92.58-2.07.09 1.08.06.43 1-1.65 2.56 3.92-2.52 4.7-2.21-.1 1.64-2.69 3.58-3.38 3.56 1.43 1.08 3.85-.5 4.45 3.5-1.19 2 1.85 1.59-.26.7 2.93-1.59 3.77 1 5.23 2-1.55 2.37-1.93-.72-1.87.35-1.81-2 .66 3.46 1.52 2.62 1.61-2.52 1.74 2.52 2 1.43.34-1.91 1.9 1.43 2-.57-1.78.29-.59-4.33-1.57-1.69ZM526.19 132c.19.75.9.95.59.31 1.21-.58-.23 1.1.34 1.45 1.44-1 1.17.62 0 .11.83.66.43.42.51 1.57 1.1-1.86-.28 1.42.31.69.37 0 1.38-.56.73 0 1.31.13.09.05.4.38-.66.53.28.37.74.3-.33.51-1.39.63-.65.75 1.71 0-1 .9.74 1.55-1.11.18 1.36.15.12 1.19 1.36-.86.6-.45 1.23.37-2.05.5-.15.62 1 .65-.5.57.39.39-.05.88.21-.18 1.38-.39.61-.12.91-.11-.27.45-.28.15-1.12.7.67.43-.35.69-1.33 1.85.19-.38.9.1-1.33 1.25.88.08-.65 1.29 1.18-.81 1.22.41 1.65.22-.51.42.4-.21.63-.1s-.08.95-.47 1a5.81 5.81 0 0 0 2.51-.18c-.88.44-1.88.76-1 .66-1.72 1 .88.55 1.83.76-1.88.95-1.65-.28-1.89 1.05 1.33-.78 1.07.58.47 0-.56.43 1.53-.1.57.19-.18 1.23 1.79.88.08 1.45l2.88-.68c-.92.51-4.1 1.9-1.57.48-1.67.31-1.49 1.24.08.41-1.29 1.09-.42.5.36.45-2.46 1.09 1.28-.35-1.09.89.48.75 3.47-.81.74.82 1.34-.2 2.1-.33 2.5-.4-.8.18-2.72.7-3.18 1.5 1.69-1 2.43-.52 1 .27.15 1.43 1.61-.3 3.21-.52-.26 1-1.95 1.06-2.52 1.59 3.42-.11 1.2 1.15 2 2.06-.11-1.42 1.85-.06 2.09.57-1.28.59-2-.51-.75 1.19.33-.79 1.36.85.62.21-.43 1 .83-.25.9.72.55-.49-.56-.43.3-1.22-.23 0-.62.23-1-.24 1.48-1.29-.45-2.14 0-3.94 1-.88-.61-1.51-1.21-1.34.26-1.14-.59-1.34-.27-2.32 1.15-1-.21 0-.88-.05.45-.51.27-.88-.88-.63.47-.65.65-.68-.32-.51.72-.63 1.12-.54-.22-.63.52-1.15-.7-3.18 0-3.58-.79-.42-1.16.62-2.18-1.3-.77.68-.39-.48-.44-.9-1.21.52-.67-.93.56-1.52-.06-.49-1.27.6-.12-.47-2.2-.05-.55-1.11-2.62-1a1.71 1.71 0 0 0-1.65-2.29 1.41 1.41 0 1 0-2.36-1.52c1.51-1.62-1.06-3.74-1.34-3.39a3.17 3.17 0 0 1 .27-.35.69.69 0 0 1-.51-.05c.46-.8-.35-.56-.76-.13-1.63-3.08-3.43-3.72-7.22-6.47 1.36 2 2.2 2.81 2.7 4.22.49.83 3.24 2.53 2.26 2.71ZM356.86 31.69c-.19-.12-.09-.05-.09-.05ZM354.57 30.48a2.22 2.22 0 0 0 .3.11ZM349.92 27.44c.05.28 0 .25-.29.19.55.23.49.08.29-.19ZM347.66 26.67a2.62 2.62 0 0 0 .68.28 1.34 1.34 0 0 0-.68-.28ZM345.06 25.18l-.22.05c.16.17.16.12.22-.05ZM345.37 25.61a.33.33 0 0 0 .4-.17ZM348.18 26.22c-.67-.13-.57-.14-.06.28.16-.04-.12-.28.06-.28ZM348.12 27.39l-.53-.14c.11.23.41.32.53.14ZM344.77 26.68c1 .71.66-1.49 2.17-.34-.53.47.05.22.72.33-.77-.43-1.31-1.06-2.42-.74 1.43.99-1.81.12-.47.75ZM350 28.32c.16 0 0-.19.28-.18-.15-.01-.54-.09-.28.18ZM348.69 26.86a1.55 1.55 0 0 0 .37 0ZM349.39 28.29c.24 0 .26 0 .21.18.45.05-.87-1.29-.21-.18ZM345.94 27.12c.1 0 .17.06.18-.08-.19-.04-.35-.04-.18.08ZM350.94 28.56a3.77 3.77 0 0 0 .62.13ZM349.62 27.69c-.13 0-.46-.15-.54-.08.26-.01.4.29.54.08ZM348.93 27.24l.12.06c.15.12.13 0-.06-.2.09.17.01.17-.06.14ZM339.75 569.22c.05.1.26.22.07.3l1.14-.34a3 3 0 0 1-1.21.04ZM315.35 572.4l.14-.15-.65.2.51-.05zM312.2 573.32l1.26-.34c-1.16.12-1.35.23-1.26.34ZM313.41 572.87l1.43-.42-1.38.11c.04.08.31.17-.05.31ZM321.24 573.24a9.13 9.13 0 0 0 2.25-.76 7 7 0 0 1-2.53.21c-.49.31.82.31.28.55ZM312.75 573.7c.06-.12-.44-.25-.55-.38l-.84.23c.45.02 1.31-.01 1.39.15ZM315.66 572.75a1.85 1.85 0 0 0 1.08.21l-.57-.27ZM317.01 573.51l1.23-.58-.54.21-.69.37zM306.48 573.78l-.6.13a.84.84 0 0 0 .6-.13ZM331.36 571.05l1.13-.85-.93.35-.2.5zM312 571.54c.08 0 .08 0 .09.06.2-.07.26-.1-.09-.06Z"/><path class="cls-1" d="M312.23 571.92a9.13 9.13 0 0 1 2.23.16 3.51 3.51 0 0 0-1.32-.52c0 .06-1.6.61-1 0-.69.21-1.04.6.09.36ZM304.54 573.85l2.48-.63-.41.06-2.07.57zM310.74 572.4c-.51.28.38.31-.71.7.73-.25 2.27-.66.71-.7ZM305.3 574c.08-.14-.15 0-.69.15l1.27-.26c-.18-.03-.22-.17-.58.11ZM304.26 574.45c.26.07 1.31 0 .93.11 1.2-.18.93-.26.22-.36ZM345.71 568.09q.19 0 .15.06c-.39.08-.29.14 0 0l.83-.19a7.28 7.28 0 0 1-1 .13ZM344.91 568.08a5.25 5.25 0 0 0 .8 0 5.89 5.89 0 0 0-.8 0ZM326.55 571.55c-.32 0-.69-.06-1.06-.07.32.08.97.19 1.06.07ZM482.53 508.93c.11-.26.24-.63.09-.74-.22.37-.29.64-.09.74ZM560.46 384.53c-.06.26-.15.69-.24 1.09.05-.19.12-.52.24-1.09ZM335.17 568.36c-.05.27.35 0 .84-.18a5 5 0 0 1-.84.18ZM561.74 378.94c-.07.27-.22.93-.26 1.2ZM347.75 567.35c-.47 0-.13.69-.42.54-.33.74 2.67-1.36.42-.54ZM321.57 571.7a2.7 2.7 0 0 0-1.25.32c.44-.1.9-.19 1.4-.27.05-.1-.03-.08-.15-.05ZM334.37 570.45l.7-.38-.68-.05-.02.43zM319.58 572.34h-.08c.2.08.17.05.08 0ZM319.37 572.27l.21.07a4.32 4.32 0 0 0 .74-.32c-.35.08-.68.16-.95.25ZM367.71 563.24h-.46a8 8 0 0 1-1.85.59 2.69 2.69 0 0 0 2.31-.59Z"/><path class="cls-1" d="m328.56 570.7-.55.14a21.61 21.61 0 0 0-2.49.39c.3-.44 1.67-.83.75-1.17-1 .11-1.22.52-2 .86.65-.13 1.23-.22 1-.13s-1 .44.2.4c-.47.12-.94.21-1.4.31-.79 0-1.61.13-2.37.25-.24.29-.14.34.45.25a14.52 14.52 0 0 1 1.92-.5h1.4-.08c.87-.21 1.73-.41 2.59-.63a7.54 7.54 0 0 1 2 .21c.75-.32.93-.36 1.08-.66l-2.74.39Z"/><path class="cls-1" d="m334.31 567-1.49.6c0-.13.45-.43 0-.44 0 .44-1.47 1.12-2.87 1-1.26.62-.06 1.69 1.16 2.22v.08h.14l-.13-.06c0-.18 0-.34 1.27-.81-3.9 0-1.64-1.2.36-.62-.75-.55 2.19-1.36 1.56-1.97ZM496 482.23a3.91 3.91 0 0 0-.37.46c-.14.34.28.38.41.61v.19h.06l-.07-.15ZM525.8 452.09c0-.18-.08 0-.19.39l.13-.07a1.6 1.6 0 0 0 .06-.32ZM474.6 504.11l.15.36c.03-.29 0-.47-.15-.36ZM379.48 552.48a1.71 1.71 0 0 1 .89.14c-.03-.19-.26-.29-.89-.14Z"/><path class="cls-1" d="M560.81 381.15c-1.2 3.86-1.79 5.7-3 9.19v-.17a85 85 0 0 1-4.09 9.92l.39-.23a9.27 9.27 0 0 1-.84 1.5c0 1.23 1.12-2.62 1.13-1.49-1 .89-2.55 6.51-3.76 7.17-.67 1.41.56-.26-.11 1.15l-.37.29.09.46c-.47.91-1 1.27-1.15 1.22a7.34 7.34 0 0 0 .36-.9 30.5 30.5 0 0 0-1.8 3.77l.78-1.28c-1.5 4-4.38 8.33-5.68 12.25l.35-.18c-1.08 3-1.45 2.08-2.94 5.17v-.14a7.3 7.3 0 0 1-.95 2.38c.17-.9-1.32 1.14-1 0-1.23 3.19-.47 1.65-.78 4l-.66.22A4.18 4.18 0 0 1 536 438c.4-1.4-1.18.58-.8-1-2.51 1.9-1.57 4.66-4.14 5.64.15 2.12 2.23-2 2.07-1.28.77-.44.15 1.7-.61 2.56s-2.57.69-4.18 3.07c.16-.23.09-.31.25-.54-.91.69-.78 2-2 2.78.32 1.11-1 1.37-.23 2.18.46-.75.87-1.54 1.3-2.32-.59 1.41-.33 3.31-2.33 4.95a4.44 4.44 0 0 1 .27-1.57c-.7.39-.64 1.26-1.37 1.66-.83-.85 1.72-2.73 1.94-4.52-.83.37-1.13 2.9-1.66 1.56.61 1.83-1.86 2.14-2 4.42l-.5-.52a4.08 4.08 0 0 1-.55 1.47l-.13-1.36c-.32 1.72-2.36 2-3 3.43 1.84-2.32 1-.24 2.4-.77-1.63 3.68-2.93.62-5.4 4.21.29-.52 1.75-1.45 1.44-.52a6.58 6.58 0 0 1-2.19 1.38c-1.7 2.34.89.14.48 1.38-1.35.19-.58 1.35-1.18 2.51l-.61-.48c-2.56 2.17.69 1.7-1.73 3.57v-1.65l-.8 1.35-.48-.82a5.53 5.53 0 0 1-2.34 3.06c.68.08 1 1.12 0 2.25-1 .43-.2-.91-1.52.69-.08-.69-.18-1.46 1-1.66-.14-.24-.08-.68-.21-.92-1.11.46-1.92 1.9-2.42 2.45a2.11 2.11 0 0 1 .7-.46l-1.19 3c-.56.14-.49-.31-.42-.74-.35.5-.35 1.07-.91 1.77-.34-.62-.9-1.06-.27-2.19l-1.39 2.59c-.35-.06-1.6.51-1.54.07-1.35.89-1.74 3.68-3.6 4.8-.71 2.15-3.74 2.32-4.63 5h-1.87c-1.13 1.46 2.44-.08.56 2.36-1.29 1.79-1.36-.23-2.16 0-.33 1.2-.77 3.45-2.94 4.05.31-.64.81-.85 1.19-1.34l-1.59.51c.51-2.12 1.75-2.71 0-2.48 1.6 2-4.16 4.1-2.61 6.1l-1.1.32c.23-.17.16-.31.39-.48-2.27.37.16 2.32-2 3.72-.78.44-1.48.56-1.24-.06-.09.57-2 2.93-1.24 1.33l-2.13 2.06v-.07a12.67 12.67 0 0 1-.57 2.18c-.82.21.11-.45-.25-.57l-.85 1.54c-.95-.09-.33-1.46.61-2.12-2.85-1-.63 1.38-4.14 2.34l1-1.25c-1.71-.5-2.3.74-4.2 1 .47.19 4.12-.39 3.19 1.28a2.29 2.29 0 0 0-1.49 1.47c-.58-.72-1.16 0-2 .76l-.69-1c-.75 1-.29 1.48-.56 2.35-1.2.71-2 .1-2.73-.36-1.91 1.12 2.14.35.14 2.07-1.76.71-2.57 1.8-4 3.66-1.32.37-.22-.76-.81-.8l-.42 1.47c-.25.14-.33-.17-.38-.32-.61.85.61 1.09-.53 2.18.36 1.38-3.73 0-4.56 2.27-.59-.07-.19-.76-.56-1.1a15.74 15.74 0 0 0-2.76 4c-.67.07-1.33.14-2 .19 1.64.17.65 1.95-.27 3.47l-.36-.09a3.34 3.34 0 0 0-.19-2.52 1.82 1.82 0 0 1-.54.67c.09-.82-.25-.64-.5.21l-1.14-1 .14.54c-1.06.24-2.1.51-3.18.72-1.38 2.22-2.21 5-5.26 7 .38-1.29-.53-1.56-1-2.65 1.44.72 2.28-1.68 4-2.3-.92.32-1-.28-.85-.57-.81.84-1.63 1.68-2.47 2.49-.35-.9-1-.35-1.9-.33 1.41 1.44-1.69 2.22-2.67 3.32-.35-.54-.32-1.27 1.23-1.84-2.23-.51-1.2 3-3.34 2.66.36-.18.6-.18.61-.54-.62.9-2.91 1.44-2.64.71l.36-.18c-2.51.94-7.48 3.22-7.24 4.86a11.08 11.08 0 0 1-.38-2.26c-.78 2.28-1.61 4.49-2.46 6.73-.11-1.42-2.79-3.79-1-5.34a4 4 0 0 0-2.54 1.11c.47 0 1.72 1.4 1.21 1.73-2.06-.78-1.34-.3-3.68-.76.71 0 .79 2.25-.21 2.55 0-.35-.81-1.89-.54-2.23l-1.67 2.83c.47-.57-.5-1.65-1.24-2 .39.28-2.08.77-2.65 1.18l1.18.07c-2.82.72-1.73 3.64-4.5 4.52.2-.5 0-2.68-1.48-2.41-.29 1.2-1.22 5.58-3.44 7.11l-.65-.39c-.55.42-1.11.83-1.67 1.22a49.58 49.58 0 0 1 4.3-7.68c-1.17-.07-.51-.54-2 .06-.71-.32.57-1.07 1-1.27l-3.65 1c.53 1.05-2.36 2.06-1.93 2.91 1.18-.8 2.34-1.65 3.5-2.49 1.23 1.24-5.14 7.91-4.14 2.12-.21.49-2.18 1.53-2.5 1.34l.89-.94c-1.54.08-1.85 2.22-3.88 1.75-.62.12-2.19-.79-2.09-.13 1.33.89 2.69 4.59 2.32 5.69a24.21 24.21 0 0 1-4.36-.59c-1.26-.62.8-2.68-.28-3.22.05.29-.38.82-.57 1-.7 0 0-1-1.32-.41.09 1.12-2.78.76-.38 1.09-1.24.7-1.47.21-3 .73.7.52-.74 2.69-2 3.35 0-.28-.39-.53-.58-.64-2.78.67-4.37.64-6.94 1.34-.3-.17-1.61-.11-1.19-.67a3.22 3.22 0 0 1-1.36.93c-1.75-.41 1.72-.62.3-1.29.05.58-1.84 1.33-2.88 2 .57.75 2.65-.54 3.68-1.2.33 1.2-1.31 3-3.88 4.17-2.09.8-1.13-.52-1.46-.26-4.09.78-3 2.78-6.54 2.73-1.51-.39-.39-1.35-.81-1.78 1.69-.68 2.8-.21 4-.52H354a4.41 4.41 0 0 1 2.31-.79c-1.27-.34-6.85 1.54-10.1 1.73-.5.35-1.41.79-.89 1l1-.31c1 .33-1.69 1.13-.38 1.1a10.38 10.38 0 0 1-4.57 1.63l-.51-.63c.09.19 1.32.16 1.8-.17-.71.47-3.08-.33-3.74.75l1.42.22c-1.26.62-2.78 1.63-4.5 1.73.9.51.37-.15 1.73.41-1.24-.78 4.31-.72 2.42-1.46 1.43.7 2.2 0 4 .5-.1-.23-.67-.35.77-.5a1.1 1.1 0 0 1 .26-.27c.05-.05.06-.06 0 0a1.79 1.79 0 0 1-.8-.22c.57-.69 2.81-1.12 3.49-1.59.85-.06-.28.36.23.53l1-.69c.24.53 2.43.47.55 1.21 2.28-.32 5.45-.57 6.5-1.32l2.67-1 .07.14c2.75-.49 5.31-2.36 8.73-1.94a10.49 10.49 0 0 1 3.33-1l.45.49c1.11-.5 3.69-.29 4-1 1.71 1.23 5.78-1.14 7.91-1.45l-.16-.81a20.68 20.68 0 0 0 4.35-1.79l-.33-.68c1.31-1 4-.67 6.35-1.46-.07.33-.69.44-1.17.4 3.38.81 5.54-3.11 8.5-2.72a2 2 0 0 1 1.54-.51.45.45 0 0 0-.14.1c.4-.16.84 0 1.28 0 1.53.49 2.95 1 1.56-.42l.16-.08c.82.06.43-.58-.16-1.05a4.25 4.25 0 0 0 .78-.82c1.05 1.1 1.73-1.1 3 0 .22-.8 3-1.7 3.24-3.1a3.24 3.24 0 0 0 2.26-.94l.75.91 1.18-2.08c1.3.22 1.9.42 1.17 1.64 2-2.24 1.88-1.25 3.51-3.37l.17.73c.76-.34 1.59-1.77 2.29-1.39 2.27.6 8.49-3.37 13.35-4.25-1.8-1.62 2.44 0 1.86-1.67.48.36 1.21.32.72 1.08 1.95-1.55 3.67-.89 4.51-2.94.49.34-.11.92.25 1.09.44-.91 1.58-.76.5.35 2.21-1.21 1.65-2.82 1.09-4.25 1.45.05 2-.34 2.28-1.65.62.24 1.52.35.25 1.24.81-.31 5-1.94 4.47-3.06.39.13 1.1-.53 1.22-.76a21.59 21.59 0 0 0 3.5-2l-.56.11c-.14-1.67 1.18-1.12 2.39-2.08l.05.16c3.56-1 1-1.27 4.59-2.17-2.81-2.44 3-1.57 3.75-3.27h-.9c.48-1.2 4.13.39 5.17-.16.3 0-.14.46-.34.78 3.06-.92-.43-1.2 1.13-2.79.73.26.61 1.63 1.87.79 1 0 1.94-4.36 4.25-4.69-3.67-1.34 4.22-2.36 3.63-4.51a.53.53 0 0 1 .46.12c.61-1.1 2.39-3.08 2.35-4.18 2.88 1.56 4.39-6 6.26-3.93l2.49-2.65.13.28a4.59 4.59 0 0 0 2-3.59c.52-.23.42.22.49.36 2.74-1.91 2.9-2.28 3.91-5.34l.84.4c1-1.46 5.09-3.37 5.84-5.76a.66.66 0 0 1 0 .54c1.1-3 7.46-4.68 6.21-8.28l1-2.37c-2.2 2.29-.69-1.21-1.9-.52.66-1.06 2.75-1.89 1.88-.62l-.26.09c.83 1.43 2.93-2.69 3.68-2 3.74-4.88 8-9.22 11.4-14.27l-1.26-.06 1.21-1.64c.51-.3 1.09-.13.23 1.05.92-.29 1-2.3.81-2.46 1.92-2.16.39 1.62.89.9.2-.34.4-.69.59-1.05l-.24.16c0-.9.37-3.37 1.89-3.32.2-.06 1.56-2.45 1.82-2.71l-1.2.46c.28-1.18 1.32-2-.05-1.5 2.46-1.11 4.87-7.44 6.13-8.74a18.24 18.24 0 0 1 2.05-4.73c-.34.37-1.13.26-.27-1.18 1 1.27 2-2.42 3.52-3.16-1.12.8 1.95-4.38.28-3.09.68-1.22.5.16 1.22-.67 1-3.52 3.54-6.91 4.66-10.53-.11-.11-.57.44-.44-.47.49-.58 1-1.16 1.45-1.75.22-.8-.45-1 .51-2.22 1.87-6.13 5.44-16 7.43-23.57-.32 1.06-.17.34 0-.49-.14.53-.09 0-.17.05.64-2 1.3-5.29 1.72-7.25l-.24 1.06c.21-1.46-.72 1.87-.82 1.62Z"/><path class="cls-1" d="m415.18 539.56 1.53 1.88.21-3.31c-.4 1.06-.81 1.36-1.74 1.43v-.06l-.05.06h.09ZM345.08 568.3l-.53.05c-.06.1.02.14.53-.05ZM445.3 526.57c.07-.27-.08-.37-.41-.36a3.52 3.52 0 0 1 .41.36ZM372.54 557.72c-.21-.07-.17-.06-.05 0ZM400.79 545.26a5 5 0 0 0-.46.46 1.7 1.7 0 0 0 .46-.46ZM466.58 508.91h-1.16l.12.3c.34.14.57-.01 1.04-.3ZM382.65 554.38l-.38.13.54 1.58-.16-1.71zM562.15 376.82c-.06.27-.17.75-.22 1 .07-.18.18-.82.22-1ZM359.17 559.25c-.1.27-1.6.88-.12.7.09-.27 2.06-1.31.12-.7ZM337.04 566.65l.44.49.41-.56-.85.07zM342.44 566c.89-.18 1.89-.27 1.82-.44l-1.48.15c.04.06-.13.15-.34.29ZM340.45 565.9l-1.48.16a5.29 5.29 0 0 0 1.48-.16ZM336.38 568.1c-.14.67.79.28 1.71-.12-.2-.43-1-.11-1.87.15a.76.76 0 0 1 .16-.03ZM327.74 568.53c-.17.09-.4.08-.57.18l.09.2c.81-.17 1.33-.46.48-.38ZM319.37 571.23c.72-.17 1.43-.34 2.15-.53l-1.17-.13.09.18c-1.25.13-.94.31-1.07.48ZM342.44 566a3.76 3.76 0 0 0-1.14.35 8.77 8.77 0 0 0 1.14-.35ZM363.54 563.63a.34.34 0 0 0-.23.27 8.93 8.93 0 0 0 2.09-.11 5.9 5.9 0 0 0-1.86-.16ZM316.15 572.68c.4 0 .74-.07 1-.1ZM359.75 562l1.51-.61c.23-.69-1.99.27-1.51.61ZM355.37 561.66l-.16-.84-.65.51a1.41 1.41 0 0 1 .81.33ZM39.53 134.33c-.15 0-.2 0-.2.09.2.06.31.06.2-.09ZM45.48 122.1c-.12 0-.2 0 0 0ZM37.72 138.89c-.21 0-.47-.15 0 .26.28.15.05-.15 0-.26ZM28 146.61h-.11c.05.08.11.17.11 0Z"/><path d="m52.07 116.19-.09.17.09-.14v-.03zM51.71 116.61v-.13a4.88 4.88 0 0 1-.5.56c.24.02.3-.32.5-.43ZM50.58 117.12l-.1.07c.05.03-.09.14.1-.07ZM50.19 117.36c-.07 0-.2.07-.19 0-.1.13 0 .14.12.14ZM50.26 117.48l-.09.16s.12.06 0-.07c.09.06.06-.01.09-.09ZM50.52 117.51c.21-.23.06-.29-.16-.07.11-.03.22-.09.16.07ZM51.46 117.13v-.11c0 .06-.19.15-.14.17ZM49.49 118.05c-.08 0-.2.07-.28 0s.17.07.24.11ZM49.45 118.17l-.05.19c.13-.1.12-.15.05-.19ZM50.4 117.59c0 .12-.07.24-.1.36.05-.15.08-.25.1-.36ZM48.66 118.49l-.05-.16.05.26v-.1zM48.33 118.8c-.06-.14-.28-.09-.28-.19a.44.44 0 0 0 0 .36c-.05-.1.08-.16.28-.17ZM49.15 118.54a.39.39 0 0 0-.26 0l.2.08ZM49.1 118.59l-.12.09ZM49.89 118.15c0 .13-.08.35.18.28-.07-.12-.19-.09-.18-.28ZM49.41 118.61l.17-.1s-.12-.05-.12-.11ZM49.39 118.72l.02-.11-.06.04.04.07zM48.42 119.1a.33.33 0 0 1-.11.25.79.79 0 0 0 .29-.18s-.1-.17-.18-.07ZM47.62 120.05l-.03-.03-.01.01.04.02zM48.71 119a.48.48 0 0 1-.11.15s.13-.06.11-.15ZM47.88 119.43h.21c-.09-.03-.25-.05-.21 0Z"/><path d="M48.7 118.86a.43.43 0 0 0 0 .16.39.39 0 0 0 0-.14ZM48.32 120.52c-.07.26-.19.1-.37.11.29.11.13.51.52.75v-.27c.05 0 .09.17.18.16-.18-.16-.22-.46.09-.45 0-.25-.67-.61-1.13-.77a.33.33 0 0 1 .13.35c.16.03.53-.12.58.12ZM47.89 119.78v-.07a.89.89 0 0 1-.43 0 .32.32 0 0 0 .09.28ZM48.55 120c.14-.18 0-.24 0-.39-.22.29 0-.16-.32 0a.45.45 0 0 1 .1-.18l-.22.07-.17.33c.09 0 .15-.11.26-.24.12.1.07.3.35.41ZM50.09 118.71c.09 0 .06.05.11.08s0-.21-.15-.14a.71.71 0 0 1-.46 0 1.43 1.43 0 0 0 .47.14s-.06-.03.03-.08ZM49.32 119.55l-.09-.07c.15-.1 0-.15 0-.22l-.12.29ZM47.45 119.98l-.18-.19.17.35.01-.16zM47.19 120.27l-.18-.16.03.16h.15zM45.92 121.28l-.07.09a.4.4 0 0 1 .13-.07ZM46.58 120.73c-.06 0-.17-.09-.14-.13l-.06.17c.05-.07.13-.05.2-.04ZM49 120.5l-.1-.07c-.07.09 0 .21.08.15s.02-.04.02-.08ZM47.38 121.13c.22.15.22 0 .27-.11-.27-.24-.27-.02-.27.11ZM47.74 120.9c-.1-.1-.06 0-.08.09a.18.18 0 0 1 .08-.09ZM45.91 121.62c.1 0-.26-.26-.15-.21-.24-.27.06.59.15.21ZM48 121.64l.12-.06-.28-.16.16.22zM10.79 354.8c-.07-.15-.1-.34-.17-.48a.58.58 0 0 0 .17.48ZM13.79 356.31c.07.17.15.34.22.52a.6.6 0 0 0-.22-.52ZM453.6 33.62a2.46 2.46 0 0 0 .29.09ZM453.09 33.48l.24.08a1 1 0 0 0-.24-.08ZM480.52 53.11c-.28-.12 0-.75-.38-.22.09.11.29.11.38.22ZM483.38 54.07s-.37.47-.24.5ZM485.87 57l-.05.41a.24.24 0 0 0 .05-.41ZM499.14 69.34c.15.48.47-.27.56.21.3-.42.07-.83-.56-.21ZM504.07 71.94c0 .24.62-.45.68-.44Z"/><path class="cls-2" d="M24.36 156.28c0-.23.46-.42.53-.79.08-.05 0 .08.07.06s0-.2.18-.36a5.75 5.75 0 0 1 1-1.13h-.17a.69.69 0 0 1 .24-.14c-.11-.24-.25.31-.39.08.4 0 .56-.82 1-.71.14-.17-.23-.06-.1-.23h.14l-.11-.12a.37.37 0 0 1 .39 0s0 .09 0 .13c.25-.07.27-.43.35-.46l-.2.12c.24-.53.85-1 .89-1.62h-.14c0-.48.33-.21.51-.65a.32.32 0 0 1 0-.38c.08.18.42 0 .49.2 0-.52-.06-.3-.37-.84l.26.07c-.14-.2-.24-.27-.17-.5.08.27.42.08.55.4.8-.09-.09-.9.8-.63-.53-.58-.62.13-.68-.06-.27 0-.39-.45-.23-.54s1 .29 1.23 0v.09c.26 0-.07-.37.33-.34-.36-.34.17-.18-.36-.54l-.09.38c0-.25-.55-.81-.05-.9a1 1 0 0 1 .23.37c.22 0 0-.22.23-.2.54.37-.14.43.15.87.29 0-.15-.58.38-.13-.67-.6.34-.24-.1-.83l.33.23c0-.07-.13-.24-.08-.3l.36.4c-.25-.42.59-.12.51-.42-.26.35-.48-.19-.84-.2-.16-.73 1.09.33 1.3-.24 0 .09-.41.1-.49-.11a1.13 1.13 0 0 1 .61 0c.17-.36-.41-.19-.53-.47.52.18-.06-.27-.1-.5l.37.24c.52-.21-.7-.6-.17-.75l.42.48V145l.41.31c-.18-.39-.06-.39.2-.49-.3-.14-.68-.48-.57-.66.31 0 .32.31.43 0 .21.22.47.47 0 .33.12.1.2.21.32.31.35 0 .29-.25.34-.34a.2.2 0 0 1-.16 0l-.29-.69a.69.69 0 0 1 .36.28c0-.09-.14-.26-.1-.38.3.24.64.46.68.69l-.12-.54c.16.07.51.1.6.22.33 0-.3-.84.13-.9a.35.35 0 0 1-.1-.2c.24-.16.79-.07.53-.64l.71.27c0-.29-.9-.32-.88-.81s.58.26.81.3c-.21-.33-.68-1 0-.84 0 .15-.08.14-.08.24l.46.07c.4.59.1.6.69.77-1.16-.84.38-.71-.78-1.56l.33.07v.1c.73.19-.74-.76-.36-.92a.46.46 0 0 1 .47.19l-.13-.42c.07 0 .26.12.19.16l.15-.39a4.79 4.79 0 0 1-.45-.64c.23 0 .09.13.26.22l-.16-.39c.37.15.56.52.42.61 1.32.69-.19-.37.78-.23v.28c.76.39.61.08 1.18.19-.26-.11-1.36-.39-1.51-.8.13 0 .23 0 .06-.31.43.31.41.13.48 0l.56.42c-.06-.25-.36-.45-.55-.72.17-.11.64.18 1 .41.28-.18-.83-.35-.71-.72.37 0 .24-.36.09-.86.3 0 .33.29.53.35l-.36-.46s.17.09.24.15c-.1-.24-.56-.43-.59-.72-.59-.51 1.17.33.62-.41.2.07.33.28.56.43a4 4 0 0 0-.6-1.2l.52.07a2.46 2.46 0 0 1-1.17-1.21c-.24-.1-.45-.19-.56-.22l-.1-.5a1.66 1.66 0 0 1 .49.43l-.1-.15a1.89 1.89 0 0 1 .83.66l-.42-.16a5.8 5.8 0 0 0 1 .9.37.37 0 0 1-.08-.2c.17.2.36.32.06 0l.67.41L40 135h.65c-.45-.72-1.2-1.64-1.15-2.23a7.39 7.39 0 0 0 1.25 1c-.65-.33 0 .49-.26.61.14-.06.38.16.45.25l-.24-.76c.43.34.38.17.63.21-.91-.58-.37-.71-.52-1.06.29.21.56.47.36.6.79.3-.82-1-.12-.81 0 0-.09 0 0 .17-.17-.3.22-.4.42-.14a.91.91 0 0 0 0-1.49c.09.07.83.71 1 .84l-2-2.38c.57.52 2.14 1.46 2.3 2 .14 0 .3 0 .2-.33a3.42 3.42 0 0 1-1-.67 5.16 5.16 0 0 0 1.18.38c-.18 0-1.06-.84-.94-.93.13.13.93.71 1 .83l-.71-1a3.56 3.56 0 0 0 1.07.75c-.2-.11.19-.23.16-.38h-.3c.37-.22-1-1.31-.73-1.59.15.19 1 1 1.28.91a12.4 12.4 0 0 1-2-2.57l.3.15-.12-.44c.55.65 1.67 2.13 2.08 2.78.29 0 .33.21.43 0a.41.41 0 0 1 .28.45l.44-.31c-.53-.39-.29-.74-.73-1.06l.21.89c-.54-.4-1.28-1.43-1-1.65.26.08.86.77 1 .9-.15-.17-.13-.55 0-.48l.18.34c.3 0-.47-.8.15-.62.08 0 .78.29.5.05a17.92 17.92 0 0 1-2.77-2.1 5.36 5.36 0 0 1 1.16.22c.51.23.9 1 1.35 1.19a1.27 1.27 0 0 1-.28-.37c.16 0 .38.35.44.15-.47-.42.27-.29-.36-.41 0-.26.22-.08.33-.28a2.6 2.6 0 0 1-.94-1.24 1.83 1.83 0 0 0 .38.23c.28-.27.62-.27.85-.56.13.06.36 0 .51.24 0-.11-.17-.27-.12-.37.51.13-.08.25.47.48-.25-.21-.18-.51-.24-.77-.42-.27-.3.24-.24.5a2.35 2.35 0 0 1-.94-1.6c.08-.33.43.18.39.08.46-.37-.57-1.08.12-1.13.44.11.63.49.89.64 0 .29-.45.13-.54.27h.28c.06.15 0 .34-.11.34.39.11.66-.71 1.18-.85 0-.14-.07-.33-.23-.38v.14c-.32-.09-.16-.46-.39-.41 0-.28-.15-.63.16-.72l.35.22c-.1-.07-.31 0-.26.11-.06-.2.7 0 .36-.38h-.34c0-.27-.19-.69.07-.77-.37-.17 0 .06-.47-.1.54.25-.46.39.18.61-.55-.22-.39.06-.92-.08.11.08.26.11.07.2a.6.6 0 0 1 .06.11.5.5 0 0 1 .24.06c.18.27 0 .49 0 .67-.13 0-.1-.14-.26-.19l.09.27c-.26-.19-.64-.12-.59-.43l-.2.17c-.25 0-.46.07-.43.24-.14 0 .09.45-.05.21l-.11.41-.07-.06c-.31.24-.07 1-.9.84 0 .15 0 .32-.25.41l-.29-.18c0 .19-.62.14-.39.41-.86-.45-.73.44-1.06.55l.36.3c-.16.12-.19.35-.21.65l.35.25c.13.38-.61.22-.8.5-.12-.12 0-.16.09-.14-1-.31 0 1.08-.81.91.07.17 0 .18-.15.16l-.27-.06a.92.92 0 0 0 .26.07.49.49 0 0 0 0 .32l-.41-.26c-.21 0 .13.21.46.39a1.09 1.09 0 0 0 .14.29c-.68-.42 0 .38-.71-.06.28.31-.1.59.56 1.18-.09-.07-.15-.08-.12-.13-.16 0-.31.06-.18.29l-.53-.35.51.72a1.37 1.37 0 0 1-.91-.63c.36.75 0 .41.43 1.12l-.32-.27c-.06.1.27.58 0 .42-.79-.29-.87.9-1.87 1 1.09.67-.64-.11.13.51-.26-.16-.45-.19-.6-.43 0 .44-.69.1-.16.79-.27-.16-.31-.33-.48-.41.23.42-.25 0-.26-.15-.17.3.55.89 1.23 1.44-.43-.12-.44 0-.05.43-.27-.13-.57-.23-.52-.46-.11.07-.78.32-.22.75-.17-.07-.15.1-.1.18-.19.19-.26.17-.36.42h.14c.62.59 0 .29 0 .51h-.07c-.77 0 .12.34-.73.31l.44.29c.89.71-.79-.06-.6.42l.3.1c.23.35-1.49-.57-1.69-.53s-.1-.13-.13-.21c-.77-.07.53.44.48.78-.33-.18-.72-.61-.89-.49-.3-.09.64 1.18-.08 1 .26.12.52.23.62.47s-1.19-.15-.58.52a.72.72 0 0 1-.2-.09c.1.26 0 .65.35 1-1.52-.9.13 1.31-1.19.38l-.19.47-.13-.11c-.26.21 0 .53.25.83-.13 0-.22-.12-.29-.18-.51.21-.47.3 0 1.06l-.44-.25c.18.25-1 .13-.77.84a.78.78 0 0 1-.15-.16c.2.74-1.72.33-.37 1.45l.18.52c.34-.3.58.46.92.46 0 .2-.67.09-.63-.13H31c-.7-.55-.55.29-1 0-.4.75-1.18 1.25-1.57 2l.56.24-.16.23c-.16 0-.45-.16-.33-.32-.34-.09.08.45.19.52-.39.22-.52-.5-.59-.4v.17h.07c.15.25.36.39.22.59s-.34-.12-.38-.08-.06 0-.06.08l-.19.29.24-.12c.11.25-.18.28.33.39-.78-.19-.82 1-1.08 1.06a.68.68 0 0 1-.1.76c.1 0 .49.16.33.33-.7-.5-.51.19-1.1.07.41 0-.18.65.39.68-.14.14-.26-.14-.48-.09.06.56-.53.86-.65 1.44.07 0 .22 0 .27.19l-.46.09c0 .13.36.31.05.38.07 0 .17 0 .16.09-.66.9-.73 2.16-1.31 3.13.08-.13.06 0 0 .08 0-.06.05 0 .08 0a4.11 4.11 0 0 0-.21.42 3.43 3.43 0 0 1-.13.55l.05-.14c-.08.2.15-.21.22-.15Zm21.12-34.18c-.2.02-.12.02 0 0Zm-5.95 12.23c.11.15 0 .15-.2.09 0-.07.05-.11.2-.09Zm-1.81 4.56c.05.11.25.41 0 .26-.47-.41-.21-.28 0-.26Zm-9.86 7.72H28c0 .17-.06.08-.14 0ZM573.49 190.59a11.53 11.53 0 0 1-2.26-6s0 .07 0 .09q-2.43-6-5.12-11.87s.18.08.23.12c-.2-.46-.4-.92-.57-1.39 0 .11-.07.24-.09.35a285.73 285.73 0 0 0-16.93-31.19 19.26 19.26 0 0 1-3.49-5.41c-.65-1-1.34-2-2-2.94-3.72-2.76-5.25-7.36-8.35-10.71-6.48-5.88-12.32-12.59-16.34-20.27a63.08 63.08 0 0 1-5.7-4.39 29.13 29.13 0 0 0-2.71-1.59 4.82 4.82 0 0 1-2.36-3.28c-6.32-5.79-15.68-17.32-14.8-16.51-1.14-1-2.3-1.95-3.45-2.91-5.39-3.08-9.71-7.71-15.2-10.6a4.62 4.62 0 0 1-2.35-2.76c-1-.76-2-1.56-3-2.37-1.82-1.85-4.32-2.3-6.67-3-4.58-1.72-7.32-6.22-11-8.93-.5-.15-.84-.18-1 0l-1.12-.66a19.82 19.82 0 0 0-3.25-3.05 29.61 29.61 0 0 1-7.18-3.72c-1.82-.95-3.64-1.91-5.53-2.71l-.81-.32a4.54 4.54 0 0 1 .87 1.26c-1.78-.89-3.6-1.69-5.4-2.53a3.47 3.47 0 0 1-.55-.26 2.81 2.81 0 0 1-3.15-1.4c-3.69-1.67-7.39-3.31-11.16-4.83a3 3 0 0 1-1.12-.46c-1.71-.68-3.38-1.42-5.09-2.07-1.54-1.57-2.17-2.62 3.36-1.19l-8.37-3.4c-4.48-2.85-11-5.61-16-6.24-4-1.61-11-.7-7-1.27-2.33-.43-4.65-.9-7-1.28l-7-1v-.52c-6.74-1.85-14-2.07-21.34-3a104.94 104.94 0 0 1-17.36-2.57c-2.55-.35-5.52.36-7.88-.63-24.12.56-47 .78-70.63 5.65-9.85 2-31.7 8.19-32.29 7.94-2.77.84-47.48 18.68-76.74 37.44-11.1 9.11-18.61 11.89-26.56 20.21-1.03 1.4-5.64 4.58-5.8 5.58-1.26.88-2.52 1.75-3.73 2.69a29.21 29.21 0 0 0-2.5 2.47 19 19 0 0 0-2.39 3.16l-.29-.08A704.36 704.36 0 0 0 91 95.41l-.48 1.26-1.16.62c-9.15 10.19-16.81 21.91-27.79 30.32-2.13 2.34-4.41 5.23-6 7.46-2.56 3.74-4.92 7.4-7.54 11.38-6.74 11.18-11.4 21.53-17.49 31.69 3.45-1 1.72 1.23-.31 4.06s-4.32 6.36-2.51 7.55c-1.7.8-3.59 3.61-3.24-.35-.4 1.46-.84 2.8-1.29 4.06-2.16 7.38-6.79 13.48-5.59 21.41-1.63 1-1.12-3-2.19-2 0 1 0 4-1.05 5S12.82 234 12.51 236a20.6 20.6 0 0 0 1.06 7.72c-1.57 1.87-3.3 7.36-2.4-.16-.46 1.94-1.63 7-2.26 9.88-.75 4.42-2.48 16.15-.31 16.36-.85 1.25-.67 5.88-.41 7-.84 8-5 12.08-5 20.85l.55-2.58c1.78 1.87 1.84 3.78 1.75 6.18a54.83 54.83 0 0 0-.34 9l-.38-.2c-.71 6.07-.79 8.29 0 12.28a24.25 24.25 0 0 1 .36 6.9c0 1.4-.05 3.12-.15 5.28l2.11-1.19c2.49.51 2.25 4.26 1.78 9.14-.29 4.67 3.06 9.29 4.9 13.79-.62-.63-2.45-.87-3-1.51 2.22 5.29.49 14.86 1.46 19.95-.06 1.27-1.2-1.64-1.89-3.2 1.13 14.69 3.34 1.07 6.89 11.15-.49 1.17-1.63.85-2.43 1.12-1.4.58 1.06 3.27 1.61 5.34-1.69.67.92 5.82 3.91 11.14a56.83 56.83 0 0 1 6.08 12.37 20 20 0 0 1 1 3.94c.22-2.48.47-4.88 3.34-.76 1.39 2.63 2.35 6.52 3.24 9.7 1.89 5.37 3.26 11.83 8.23 15.06.19 1 .09 1.47-.15 1.65 3.76 4.71 10.22 14.4 14.79 17-1.85 5.28 6.15 13.24 10.07 17.26 2.64 2.59 5.44 5.41 7.65 8 1.87 2.24 2.63 4.06 1.26 5.21 3.39 3.89 8.59 9.21 12.32 12.89l-.85.17c4.2 5 10.1 9.66 16 11.35 1.65 2.08-.24 1.33-.65 1.46 5.8 6 9 9.27 12.64 11.54a66.77 66.77 0 0 0 13.85 6.62l-.17 2.72c5.29 3 11.49 9.35 17 13.07 5.24 3.44 10.78 6.93 16.83 8.78-.26.16-.77.41-2.08.1 11.92 4.29 19 9.33 31.16 13.84 3.79 1.27 12.94 4.33 17.47 4.54l1.55 1c2 .25 4.17 1.39 9.15 2.69 0 0 13.81 3.43 21.18 4.37q5.69 1 11.32 2.06c5.59.89 11.33 1.76 16.93 2.54 4.7.5 9.38 1.08 14.07 1.57l14 .92a246.93 246.93 0 0 0 33.09-.89c-1.24-1-2.45-2-3.66-3 3.33-.25 6.64-.68 10-1 2.71.46 3.89 2.2-3.29 3 2.5.91 6.49-.54 9.13-1.95.8-.45 2.54-1.58 2.67-2.08 14-1.08-4.46 4.76-.52 4.23l5.79-1.29-1.39-.16c3.44-1.75 4.59-3.06 8.09-4a42.78 42.78 0 0 1 5-1.3c5.47-.56 3.21 1.42 5.34 1.06.05.24.79.19 3.26-.65 4.15-1 8.26-2.11 12.39-3.16l-5.65-1.2a51.07 51.07 0 0 1 6.81-2.78c2.07-.92.2-1.18-1.83-1.67 3.77.64 7.12-.41 11.17-1.29 9.62-2.33 20.78-7.48 29.93-11.75 2.6-1.14 6.06-3.16 8.43-3.75a56.81 56.81 0 0 1 4.73-3.69c5.19-4 10.33-6.56 16.29-10.27-2.31.81-5.08-1 2-5.1.63 4.09 5.64 1.07 8.39-.46 3.22-1.86 6.83-4.19 10.41-5.43a11.63 11.63 0 0 1 2.6-.71c-2 0 2.15-3.47 5.94-6.85 2.08-1.84 8.37-7.69 2.56-6 5.53-4.12 1.83 1.52 6.77-.81a160.67 160.67 0 0 1 14.11-14c6.67-6.23 13.47-12.49 19.54-19.38 2-2.45 4-5 5.86-7.56-.46-.75-3.56 1.15-1.83-3 3.35-1.92 6.44-4.11 9.68-6.25 1.51-2.72-.17-4.73 1.6-7.19a11.47 11.47 0 0 1 3.04-3.17c-1.15.5-2.85 1.22-1.62-1.19 1.93-2.42 3.85-5 5.68-7.48a193.65 193.65 0 0 0 14-24.73c3.93-8.7 7.44-17.65 10.69-26.64 1.07-3.31 3.12-9.45 4.26-12.72 1.52-4.8 3-9.83 4.69-14.61q3.91-12.94 8.45-25.67c-2.54 5.19-2 1.53-1.37-2.62-.4 1.24-.87 1.22-1.38.9q1.17-6.43 2-13c.45-1.47.89-2.93 1.29-4.37a3 3 0 0 1-.6-1.13q1.27-11.09 1.7-22.41L592 299a286 286 0 0 0-18.51-108.41ZM82.09 463.46c-.27 1.09-.4-3.95-2-1.43-.86.84-3.33-4.61-1.52-2.62-.06-1.07.32 2 1.87-.35-1.46-.94-2.3-3.57-5.23-2 2.11.89-.93 1.33.26-.7-.6-4-3-2.42-4.45-3.5.69 0 3.28-1.92 3.38-3.56-.78-.31-6.35 4.77-4.7 2.21.65-.94-2.5-.91-.43-1 .18-.2-.52-.67-.92-.58 6.29-2.09-4.65-1.77.38-.42-8.48-.35 5.15-2.77 3.58-3.09.39-1.44-8.7 1.82-3-.89-2.1-.48-6.3.17-2.27-1.9-4.77 1.12 2.47-2.24-2.33 0 1.7-3.05.22-.2-1.93-2 7.54-1 5-2.06.32-.77 3.09-.69-1-1.36-.76-3.66 1.7-.44-2.07.22-1.22-.69 1.45 1.5 1.3-1.76-.93-.29.2-.44-.14-.57.7-1-3-1.49.87.31 2.61-.92-5.27-1.14-4.58-.86-4.23-2.92 3.92-.86.65-1.68-.53 0 .76-1.48-.62-1-2-1.6 1.81-1.69.32-2.66-1.55-2.35 1.84-.75-1.46-2.24-2.23-1.62 3.58-2-1.86-.84.83-1.87-.31-3.84-2.28 1.81-2.17-1.13-.92-.74-.91-3 0-1.4.19.82.61.69 1.2 1.08.87-1.65-2-.34.1-1.83 1.28 1 1.51-.88-.29-.44-.24.07.21-1.23-1.17-1.56 2.11-.15-.06-.71-.75-.95-.29.78-5.08-2.61-.25-1.93.28-2.11-2.16-.35-.34-2.32-1.16-.64-3 1.5-1-.56-1.38-.87-.18-2.06-1.28-2.15 1-.21-1.24-1.19-1.17-1.75 1.07-.34.68-1.06-.15-1.43 2 .58.89-.45 1.74-.73-4.84-1.84 2.86-.49-2.1-3.05 1.31-.11-.05-.85 1.56-.55.34-1-2.81-.1-.62-1.21-2.41-.23-1.71-2.11-2.16-1 .37-1.51 1.85-4.05-.29-1.59-.44-2.06 1.89-2-.46-3.43 1-1.56 0 .22 1.63.42-.22-1.09 2-.62-.7-2 .29 2.39-1.77-1.63.42-2.66-1.3-2-.35.32-1.79.45-.19-3.1 1.65-2.66-1.08-4.56-.38-6.74-2.12-9.66-2.31-16.63-.4-8.12 1.54 5.21 4.11 7.78 1.37 5.41 2.67 12.29 5.68 14.44.79 1.11-.83-.59-.94.64 1.36.3 1.12.12.15.57 2.21 1 3.23 6.82 1 8.52 4.32-2.4 4.45 2.7 4.82 5.27-1.69.54 2.63 1.12.39 2.35 1.41-.77 2.78 4.26 1.7 4.64 3.73 1 .93 2.73 5 3.91.1.48-.91.6-1.43 1 4-.87-2.64 2.37-.08 3.85.71-.76 1.12.6.72 1.43-.06 1.5 1.39 0 1.53 1.73 2.61 2.19-.24 2.63 4 2.4-1 .71.36 9.45 3.27 9.25-1.88.27-1.78 1.42 0 .89-1.86 1.05.63 1.4 1.71 1.71-1.85 3 3.56-1.19 1.29 1.51-.12 2.31 1.65 3.08 1.8 5.46 1.24-.37 4.29 1 3.09 3.06 1.41 4.26.77 2.72 3.63 7.43.15.94-1.67 1.77.72 2.37 1-2.64-.21 2 1.69 1.65-.21 2-1.78-1.34-2.12.57Zm446.26-331.83c.41-.43 1.22-.67.76.13a.69.69 0 0 0 .51.05c-.06.07-.15.17-.28.35.29-.35 2.86 1.77 1.35 3.39a1.41 1.41 0 1 1 2.36 1.52 1.71 1.71 0 0 1 1.65 2.29c2.07-.13.42.93 2.62 1-1.15 1.07.06 0 .12.47-1.23.59-1.77 2-.56 1.52 0 .42-.33 1.58.44.9 1 1.92 1.39.88 2.18 1.3-.7.4.52 2.43 0 3.58 1.34.09.94 0 .22.63 1-.17.79-.14.32.51 1.15-.25 1.33.12.88.63.67 0 2-1 .88.05-.32 1 .53 1.18.27 2.32.6-.17 2.17.46 1.21 1.34-.45 1.8 1.48 2.65 0 3.94.42.47.81.22 1 .24-.86.79.25.73-.3 1.22-.07-1-1.32.33-.9-.72.74.64-.29-1-.62-.21-1.29-1.7-.53-.6.75-1.19-.24-.63-2.2-2-2.09-.57-.82-.91 1.4-2.17-2-2.06.57-.53 2.26-.61 2.52-1.59-1.6.22-3.06 1.95-3.21.52 1.44-.79.7-1.25-1-.27.46-.8 2.38-1.32 3.18-1.5-.4.07-1.16.2-2.5.4 2.73-1.63-.26-.07-.74-.82 2.36-1.24-1.37.2 1.09-.89-.78 0-1.65.64-.36-.45-1.57.83-1.75-.1-.08-.41-2.53 1.42.65 0 1.57-.48l-2.88.68c1.71-.57-.26-.22-.08-1.45 1-.29-1.13.24-.57-.19.6.53.86-.83-.47 0 .24-1.33 0-.1 1.89-1.05-1-.21-3.55.27-1.83-.76-.84.1.16-.22 1-.66a5.81 5.81 0 0 1-2.51.18c.39-.07.72-1 .47-1s-1.14.52-.63.1c-.43.19-.47-1-1.65-.22 1.53-1.21-.68 0 .65-1.29-.71-.48-2.23 1.75-.9-.1 1-.26-.77 0 .35-.69 0 .3 1.19-.26.28-.15.77-.27-.4-.06-.61.12.44-.49-.45-.31.05-.88-1.14 0-3-.15-1-.65-.63-.82.13-1.23-1.23-.37 1.23-1-1.23-1-.12-1.19-1.79-.65 1-1.56-.74-1.55-.74-.12.32-.24.65-.76-.46.07-1.4.24-.74-.29-.31-.33.91-.25-.4-.38.65-.56-.36 0-.73 0-.59.73.79-2.55-.31-.69-.08-1.15.32-.91-.51-1.57 1.19.51 1.46-1.12 0-.11-.57-.35.87-2-.34-1.45.31.64-.41.44-.59-.31 1-.18-1.77-1.88-2.36-2.62-.5-1.41-1.34-2.21-2.7-4.22 3.89 2.66 5.69 3.3 7.32 6.38ZM356.86 31.69l-.09-.06s-.1-.06.09.06Zm-2-1.1a2.22 2.22 0 0 1-.3-.11Zm-.66-.38a3.08 3.08 0 0 1-1.2-.6c.27.18.82.39 1.21.6Zm-1-.33a.64.64 0 0 1-.36-.17c.02-.05.28.15.37.17Zm-1-1.14c.11.08.15.08.21.15-.41-.22-.19-.05-.22-.15Zm-.41.07c.29.07.11 0 0-.16.47.24.49.35-.01.16Zm-.19-.53c-.1 0 .12.12.16.19-.19.03-.66-.36-.17-.19Zm-.28.17a.46.46 0 0 1 .14.05c-.18.06-.35-.22-.15-.05Zm.25.24a3.77 3.77 0 0 1-.62-.13Zm-1.64-1.25c.2.27.26.42-.29.19.26.06.36.09.28-.19Zm.4.7c-.29 0-.12.14-.28.18-.31-.27.08-.19.27-.18Zm-.93.15c-.66-1.11.66.23.21.18.04-.14.02-.22-.22-.18Zm-.31-.68c.08-.07.41.1.54.08-.15.21-.29-.09-.55-.08Zm-.09-.51c.19.16.21.32.06.2l-.12-.06c.06.03.14.03.06-.14Zm-.81-.88c-.15 0 .1.24-.06.28-.52-.42-.62-.41.05-.28Zm-.06 1.17c-.08.18-.42.09-.53-.14Zm-3.06-2.21c-.07.17-.1.22-.22.05Zm.18.75c1.11-.32 1.65.31 2.42.74-.67-.11-1.24.14-.72-.33-1.51-1.15-1.15 1.05-2.17.34-1.35-.63 1.89.24.46-.75Zm.88 1.11c0 .14-.08.09-.18.08s-.02-.12.17-.12Zm-1.64-1.1a.53.53 0 0 0-.2-.07c.11.01.25-.04.19.07Zm-.63-1.29c-.19.14 0 .07-.33-.07ZM342 24c0-.12-.11.26-.19.16-.55-.08.44-.42.19-.16Zm-52.71-5.75c2.29-.15 4.87-.38 5.8 1-.34-1.78 1.12-1.92 2.84-1.74 3 .22 5.2.55 8.33 0-.31-.68 1.81 1.29 1.47-.29.9.6 2-1.39 1.72.53.64-2.69 1 2 1.24.73 1.62.47 2.15.11 4 .2 2.14-.52 1.49 1 3.12-1.07-.06 1.51 7.41 2.15 7.39 2.72 2.68-.47 2.58-.63 5.9.47 3.47 0 6.19 2 9.23 2.53.92.33 2.4 2.46 2 .81.34 0 1.25 1.19 2 .79.44.6-3.29 1-5.08-.16.43 0 1.4.82 1.36-.62-1 .07-2.88-.95-3.56.69 1.37-.27.74.21 0 .49.18-.38.61-.67-.14-.35-1-2-2.79-1-3.66-.42-1.45 0 1.15-1.09-.67-2.63-.94 2 .14 2.7-2 2.4.21-.19-.52-2.54-1.54-.06 1.69.15-2.69.87 1.55-3-2.93 1.25-2.11 1.61-4.49 2.15.19-2.36-1 1-.42-1.31-.76.55-.37 1.57-1.05-.09-.25.4.05 1.59-.75.91-1 .4-.15-.44 0-1.12-.09 2.6.64-.41.69-1.34-1.71 2.44-1 1.83-3.38 1.74-1.14-.93-1.15-.18-3.17.07 1.71-1.26 1.31-2.58-.83-.11-1.28-1.14-1.24-.19-.85-2-1.46 1.63-1.47 1.85-3.34.86-.81 1-.58.58-2.17.67-.46 1.21-.81-.12-2.23-.28.37 2.52-1.15.18-.82-.7-1.43 1.08-2.87-.13-4.76 1.89 1-1.77-1.23-1.83-1.38-.57-.36-.78-2-.77-2.18 0 .49-1.34-1.38.72-1.53-.62-1.49 1.06.46-1-.82-.2.18-1-.67.87-1.29.2.19-.52.91-.13.18-.88-.5.86-1.86 1.05-1.34 0-.54.47-2.42.79-2.29 1-4.74-1.63-9.74.16-22.51 1.57 2.79-2.31 18.9-3.87 19.47-4.87Zm54.9 7.62c-.23-.05-.44-.05-.39-.27.39-.03.45.02.43.26Zm-.45.2v.28c-.2-.11-.11-.17.04-.29Zm-.9-.31a1.17 1.17 0 0 1-.72-.19c.07-.11.58.19.76.18Zm-3.52-.23c-.41.26-.1-.11-.09-.29.07.11.05.19.13.28Zm-1.27-1.23h.4c.08.22-.53.25-.36-.01Zm0 1.3c-.49-.1.09-.18.16-.28.35.18-.06.17-.13.27Zm-5.4-2.32.28-.76s-.07.92-.25.75Zm-4.92.72c-.36-.32-.17.47-.57.18.15-.88.56-.68.6-.18Zm-22.25-2c-.12.06-.08-.5-.11-.54Zm-3 .42c-.14 0-.3.07-.43 0 .03-.57.19.09.49.02ZM279.7 575.67h.44s.48-.01-.44 0Zm9.3-.56.16-.05 1.16-.16Zm3.11-.22a27.07 27.07 0 0 1 5.47-.61c-1.29.07-3.64.44-5.47.61Zm4.23-.76a4.92 4.92 0 0 1 1.62-.22c.04.09-1.25.09-1.62.22Zm5 .53c.6.08-.89.08 0 0Zm.86-.06a5.88 5.88 0 0 1-1.06 0c.88-.1 1.13-.15 1.17-.15s-.31.09-.13.15Zm1.33-.66c-1.16.26-.3.22.37.24-2.25.27-2.62.06-.39-.24Zm-37.9-138.77-38.37 13.66-38.46 13.48-.51.18a11.87 11.87 0 0 1-15.11-7.26 12.52 12.52 0 0 1-.67-4c0-11.43.21-22.85.32-34.28s.23-22.84.44-34.27l.08-5.09-19.15 6.26-11.39 3.72-11.41 3.67-.66.21a8.37 8.37 0 0 1-10.52-5.4 8.52 8.52 0 0 1-.4-2.67c.17-13.25.34-26.51.61-39.77s.55-26.51.87-39.77q.32-11.94.68-23.88c-.11-1.3-.21-2.6-.31-3.9l-2.1-27.94-2-27.94a6.23 6.23 0 0 1 7.8-6.44l.59.16 23.16 6.25 23.12 6.34 5 1.37c.66-17 1.41-33.92 2.38-50.89 1.63 17.58 3 35.17 4.34 52.76q17.25 4.77 34.48 9.62l1 .28q-.27-7.81-.5-15.64l-.94-30.68-.77-30.72a11.24 11.24 0 0 1 11-11.52 11.45 11.45 0 0 1 3.53.47l.72.23c10.94 3.35 21.83 6.83 32.74 10.25s21.82 6.84 32.7 10.36l32.66 10.48c10.89 3.48 21.74 7.08 32.61 10.62s21.75 7.06 32.59 10.68L428.33 215l16.27 5.42 16.24 5.49 32.48 11a15.3 15.3 0 0 1 .49 28.8l-.18.07c-15 5.57-30 10.94-45 16.41l-22.52 8.18-15.41 5.51 14.64 4.45 22.89 7.06c15.26 4.73 30.54 9.38 45.76 14.21a15.21 15.21 0 0 1 .88 28.69h-.11l-38.08 14.51c-12.67 4.86-25.41 9.54-38.12 14.32l-38.15 14.24-38.22 14.06c-12.73 4.72-25.51 9.31-38.27 13.93s-25.51 9.29-38.31 13.82Zm221.2 54.9a8.37 8.37 0 0 1 .91-1c.91.72-.16.41-.93 1Zm-7.4 9.81-1.13-.47.23-.17Zm-79.77 45c1.78-.09-.09-1 1.82-1.3.9.94.25.91-.67 1.73.28-.55-1.45.07-1.17-.48Zm-17 9.55.16 1.71-.54-1.58Zm-10.11 3.34h-.05c-.13-.11-.17-.12.04-.05Zm-13.49 2.22c-1.48.19 0-.42.12-.69 1.93-.66-.04.38-.13.64Zm2.21 1.43-1.51.61c-.49-.37 1.73-1.33 1.5-.66Zm-5.89.29a1.41 1.41 0 0 0-.81-.33l.65-.51Zm-11.11 3.86c.07.17-.93.26-1.82.44a8.77 8.77 0 0 1-1.14.35 3.76 3.76 0 0 1 1.14-.35c.22-.1.39-.19.34-.29Zm-3.81.38a5.29 5.29 0 0 1-1.48.16Zm-2.37 2.05c-.92.4-1.85.79-1.71.12a.76.76 0 0 0-.16 0c.89-.25 1.67-.57 1.87-.12Zm-1-1.33.85-.07-.41.56Zm-9.78 2.26-.09-.2c.18-.1.4-.09.57-.18.8-.1.28.19-.53.36Zm-6.91 1.66 1.17.13-2.15.53c.13-.17-.18-.35 1.07-.48Zm-8.32 1c.32 0 .26 0 .09.06-.57.57 1 0 1 0a3.51 3.51 0 0 1 1.32.52 9.13 9.13 0 0 0-2.23-.16c-1.13.24-.78-.15-.11-.32-.04-.11-.04-.13-.15-.15Zm-6.84 3c.38-.1-.67 0-.93-.11l1.15-.25c.66.07.93.15-.27.33Zm-.58-.39c.54-.14.77-.29.69-.15.36-.3.4-.16.58-.11Zm-.07-.33 2.07-.56.41-.06Zm6.2-1.44c1.56 0 0 .45-.71.7 1.04-.42.15-.45.66-.73Zm2 1.3c-.08-.16-.94-.13-1.39-.15l.84-.23c-.09-.11.1-.22 1.26-.34l-1.26.34c.07.1.57.23.51.35Zm2.6-1.29h-.51l-1.43.42c.36-.14.09-.23 0-.31l1.38-.11.65-.2Zm.31.34.51-.06.57.27a1.85 1.85 0 0 1-1.12-.24Zm1.35.76.69-.37.54-.21Zm4.23-.27c.54-.22-.77-.23-.28-.55a7 7 0 0 0 2.53-.21 9.13 9.13 0 0 1-2.29.73Zm10.12-2.19.2-.5.93-.35Zm1.4-2.17c-2-.58-4.26.62-.36.61-1.3.48-1.26.64-1.27.82l.13.06h-.14c-.15.3-.33.34-1.08.66a7.54 7.54 0 0 0-2-.21c-.86.22-1.72.42-2.59.63s0 0 .08 0c.38 0 .74 0 1.06.07-.09.12-.74 0-1.06-.07s-.92 0-1.4 0a14.52 14.52 0 0 0-1.92.5c-.59.09-.69 0-.45-.25-.5.08-1 .17-1.4.27a4.32 4.32 0 0 1-.74.32c.09 0 .12.08-.08 0h.08l-.21-.07c.27-.09.6-.17.95-.25a2.7 2.7 0 0 1 1.25-.32c.12 0 .2-.05.15 0 .76-.12 1.58-.2 2.37-.25.46-.1.93-.19 1.4-.31-1.21 0-.37-.28-.2-.4s-.38 0-1 .13c.79-.34 1-.75 2-.86.92.34-.45.73-.75 1.17a21.28 21.28 0 0 1 2.49-.39l.55-.14-.18.08 2.74-.39v-.08c-1.22-.53-2.42-1.6-1.16-2.22 1.4.17 2.85-.51 2.87-1 .43 0 0 .31 0 .44l1.49-.6c.52.75-2.42 1.56-1.66 2.02Zm1.61 1.57v-.43l.68.05Zm.8-2.09a4.83 4.83 0 0 0 .84-.18c-.53.14-.93.42-.88.15Zm4.65 1.16c.19-.08 0-.2-.07-.3a3 3 0 0 0 1.21 0Zm6.05-1.37c-.29.14-.39.08 0 0l-.15-.06a7.28 7.28 0 0 0 1-.13Zm1.46-.26c.29.15-.05-.58.42-.54 2.21-.85-.79 1.25-.46.51Zm212.85-182.3c.09-.4.18-.83.24-1.09-.11.57-.19.9-.24 1.09Zm1.26-5.48c0-.27.19-.93.26-1.2Zm-1.43 5.53c.08-.09 0 .48.17-.05-.18.83-.33 1.55 0 .49-2 7.54-5.56 17.44-7.43 23.57-1 1.21-.29 1.42-.51 2.22-.47.59-1 1.17-1.45 1.75-.13.91.33.36.44.47-1.12 3.62-3.66 7-4.66 10.53-.72.83-.54-.55-1.22.67 1.67-1.29-1.4 3.89-.28 3.09-1.53.74-2.47 4.43-3.52 3.16-.86 1.44-.07 1.55.27 1.18a18.24 18.24 0 0 0-2.05 4.73c-1.26 1.3-3.67 7.63-6.13 8.74 1.37-.53.33.32.05 1.5l1.2-.46c-.26.26-1.62 2.65-1.82 2.71-1.52-.06-1.93 2.42-1.89 3.32l.24-.16c-.19.36-.39.71-.59 1.05-.5.72 1-3.06-.89-.9.16.16.11 2.17-.81 2.46.86-1.18.28-1.35-.23-1.05l-1.21 1.64 1.26.06c-3.44 5.05-7.66 9.39-11.4 14.27-.75-.73-2.85 3.39-3.68 2l.26-.09c.87-1.27-1.22-.44-1.88.62 1.21-.69-.3 2.81 1.9.52l-1 2.37c1.25 3.6-5.11 5.24-6.21 8.28a.66.66 0 0 0 0-.54c-.75 2.39-4.8 4.3-5.84 5.76l-.84-.4c-1 3.06-1.17 3.43-3.91 5.34-.07-.14 0-.59-.49-.36a4.56 4.56 0 0 1-2 3.59l-.13-.28-2.49 2.65c-1.87-2.06-3.38 5.49-6.26 3.93 0 1.1-1.74 3.08-2.35 4.18.15.11 0 .48-.09.74-.2-.1-.13-.37.09-.74a.53.53 0 0 0-.46-.12c.59 2.15-7.3 3.17-3.63 4.51-2.31.33-3.27 4.64-4.25 4.69-1.26.84-1.14-.53-1.87-.79-1.56 1.59 1.93 1.87-1.12 2.79.19-.32.63-.8.33-.78-1 .55-4.69-1-5.17.16h.9c-.71 1.7-6.56.83-3.75 3.27-3.6.9-1 1.15-4.59 2.17l-.05-.16c-1.21 1-2.53.41-2.39 2.08l.56-.11a21.59 21.59 0 0 1-3.5 2c-.12.23-.83.89-1.22.76.54 1.12-3.66 2.75-4.47 3.06 1.27-.89.37-1-.25-1.24-.32 1.31-.83 1.7-2.28 1.65.56 1.43 1.12 3-1.09 4.25 1.08-1.11-.06-1.26-.5-.35-.36-.17.24-.75-.25-1.1-.84 2.06-2.56 1.4-4.51 2.95.49-.76-.24-.72-.72-1.08.58 1.64-3.66 0-1.86 1.67-4.86.88-11.08 4.85-13.35 4.25-.7-.38-1.53 1-2.29 1.39l-.17-.73c-1.63 2.12-1.48 1.13-3.51 3.37.73-1.22.13-1.42-1.17-1.64l-1.18 2.08-.75-.91a3.24 3.24 0 0 1-2.26.94c-.27 1.4-3 2.3-3.24 3.1-1.3-1.11-2 1.09-3 0a4.25 4.25 0 0 1-.78.82c.59.47 1 1.11.16 1.05l-.16.08c1.39 1.44 0 .91-1.56.42-.44 0-.88-.17-1.28 0a.45.45 0 0 1 .14-.1 2 2 0 0 0-1.54.51c-3-.39-5.12 3.53-8.5 2.72.48 0 1.1-.07 1.17-.4-2.35.79-5 .43-6.35 1.46l.33.68a20.68 20.68 0 0 1-4.35 1.79l.16.81c-2.13.31-6.2 2.68-7.91 1.45-.33.75-2.91.54-4 1l-.45-.49a10.49 10.49 0 0 0-3.33 1h.46a2.69 2.69 0 0 1-2.31.55 8.93 8.93 0 0 1-2.09.11.34.34 0 0 1 .23-.27 5.9 5.9 0 0 1 1.86.16 8 8 0 0 0 1.85-.59c-3.42-.42-6 1.45-8.73 1.94l-.07-.14-2.67 1c-1 .75-4.22 1-6.5 1.32 1.88-.74-.31-.68-.55-1.21l-1 .69c-.51-.17.62-.59-.23-.53-.68.47-2.92.9-3.49 1.59a1.79 1.79 0 0 0 .8.22c.09 0 .08 0 0 0a1.1 1.1 0 0 0-.26.27l.53-.05c-.51.19-.59.15-.53.05-1.44.15-.87.27-.77.5-1.78-.52-2.55.2-4-.5 1.89.74-3.66.68-2.42 1.46-1.36-.56-.83.1-1.73-.41 1.72-.1 3.24-1.11 4.5-1.73l-1.42-.22c.66-1.08 3-.28 3.74-.75-.48.33-1.71.36-1.8.17l.51.63a10.38 10.38 0 0 0 4.57-1.63c-1.31 0 1.42-.77.38-1.1l-1 .31c-.52-.16.39-.6.89-1 3.25-.19 8.83-2.07 10.1-1.73a4.41 4.41 0 0 0-2.31.79h1.54c-1.18.31-2.29-.16-4 .52.42.43-.7 1.39.81 1.78 3.58 0 2.45-2 6.54-2.73.33-.26-.63 1.06 1.46.26 2.57-1.21 4.21-3 3.88-4.17-1 .66-3.11 1.95-3.68 1.2 1-.65 2.92-1.4 2.87-2 1.43.67-2 .88-.29 1.29a3.22 3.22 0 0 0 1.36-.93c-.42.56.89.5 1.2.67 2.56-.7 4.15-.67 6.93-1.34.19.11.59.36.58.64 1.27-.66 2.71-2.83 2-3.35 1.55-.52 1.78 0 3-.73-2.4-.33.47 0 .38-1.09 1.31-.54.62.37 1.32.41.19-.18.62-.71.57-1a1.71 1.71 0 0 0-.89-.14c.63-.15.86-.05.89.14 1.08.54-1 2.6.28 3.22a24.21 24.21 0 0 0 4.36.59c.37-1.1-1-4.8-2.32-5.69-.1-.66 1.47.25 2.09.13 2 .47 2.34-1.67 3.88-1.75l-.89.94c.32.19 2.29-.85 2.5-1.34-1 5.79 5.37-.88 4.14-2.12-1.16.84-2.32 1.69-3.5 2.49-.43-.85 2.46-1.86 1.93-2.91l3.65-1c-.43.2-1.71.95-1 1.27 1.51-.6.85-.13 2-.06a49.58 49.58 0 0 0-4.3 7.68c.56-.39 1.12-.8 1.67-1.22l.65.39c2.22-1.53 3.15-5.91 3.44-7.11 1.45-.27 1.68 1.91 1.48 2.41 2.77-.88 1.68-3.8 4.5-4.52l-1.18-.07c.57-.41 3-.9 2.65-1.18.74.33 1.71 1.41 1.24 2l1.67-2.83c-.27.34.58 1.88.54 2.23 1-.3.92-2.52.21-2.55 2.34.46 1.62 0 3.68.76.51-.33-.74-1.72-1.21-1.73a4 4 0 0 1 2.54-1.11l.05-.06v.06c.93-.07 1.34-.37 1.74-1.43l-.21 3.31-1.53-1.88h-.09c-1.77 1.55.91 3.92 1 5.34.85-2.24 1.68-4.45 2.46-6.73a11.08 11.08 0 0 0 .38 2.26c-.24-1.64 4.73-3.92 7.24-4.86l-.36.18c-.27.73 2 .19 2.64-.71 0 .36-.25.36-.61.54 2.14.37 1.11-3.17 3.34-2.66-1.55.57-1.57 1.3-1.23 1.84 1-1.1 4.08-1.88 2.67-3.33.95 0 1.55-.56 1.9.34.84-.81 1.66-1.65 2.47-2.49-.13.29-.07.89.85.57-1.76.62-2.6 3-4 2.3.47 1.09 1.38 1.36 1 2.65 3.05-2 3.88-4.82 5.26-7 1.08-.21 2.12-.48 3.18-.72l-.14-.54 1.14 1c.25-.85.59-1 .5-.21a1.82 1.82 0 0 0 .54-.67 3.52 3.52 0 0 0-.41-.36c.33 0 .48.09.41.36a3.34 3.34 0 0 1 .19 2.52l.36.09c.92-1.52 1.91-3.3.27-3.47.67-.05 1.33-.12 2-.19a15.74 15.74 0 0 1 2.76-4c.37.34 0 1 .56 1.1.83-2.3 4.92-.89 4.56-2.27 1.14-1.09-.08-1.33.53-2.18 0 .15.13.46.38.32l.42-1.47c.59 0-.51 1.17.81.8 1.45-1.86 2.26-2.95 4-3.66 2-1.72-2.05-.95-.14-2.07.73.46 1.53 1.07 2.73.36.27-.87-.19-1.32.56-2.35l.69 1c.87-.74 1.45-1.48 2-.76a2.29 2.29 0 0 1 1.49-1.47c.93-1.67-2.72-1.09-3.19-1.28 1.9-.27 2.49-1.51 4.2-1l-1 1.25c3.51-1 1.29-3.33 4.14-2.34-.94.66-1.56 2-.61 2.12l.85-1.54c.36.12-.57.77.25.57a12.67 12.67 0 0 0 .57-2.18l-.15-.36c.15-.11.18.07.15.36v.07l2.13-2.06c-.8 1.6 1.15-.76 1.24-1.33-.24.62.46.5 1.24.06 2.12-1.4-.31-3.35 2-3.72-.23.17-.16.31-.39.48l1.11-.27c-1.55-2 4.21-4.09 2.61-6.1 1.73-.23.49.36 0 2.48l1.59-.51c-.38.49-.88.7-1.19 1.34 2.16-.6 2.61-2.85 2.94-4.05.8-.26.87 1.76 2.16 0 1.88-2.44-1.69-.9-.56-2.36h1.87c.89-2.71 3.92-2.88 4.63-5h-.06v-.19c-.13-.23-.55-.27-.41-.61a3.91 3.91 0 0 1 .37-.46v1.07l.07.15c1.86-1.12 2.25-3.91 3.6-4.8-.06.44 1.19-.13 1.54-.07l1.39-2.59c-.63 1.13-.07 1.57.27 2.19.56-.7.56-1.27.91-1.77-.07.43-.14.88.42.74l1.19-3a2.11 2.11 0 0 0-.7.46c.5-.55 1.31-2 2.42-2.45.13.24.07.68.21.92-1.14.2-1 1-1 1.66 1.32-1.6.49-.26 1.52-.69.94-1.13.65-2.17 0-2.25a5.53 5.53 0 0 0 2.34-3.06l.48.82.8-1.35v1.65c2.42-1.87-.83-1.4 1.73-3.57l.61.48c.6-1.16-.17-2.32 1.18-2.51.41-1.24-2.18 1-.48-1.38a6.58 6.58 0 0 0 2.19-1.38c.31-.93-1.15 0-1.44.52 2.47-3.59 3.77-.53 5.4-4.21-1.4.53-.56-1.55-2.4.77.63-1.4 2.67-1.71 3-3.43l.13 1.36a4.14 4.14 0 0 0 .55-1.47l.5.52c.17-2.28 2.64-2.59 2-4.42.53 1.34.83-1.19 1.66-1.56-.22 1.79-2.77 3.67-1.94 4.52.73-.4.67-1.27 1.37-1.66.11-.35.21-.57.19-.39a1.6 1.6 0 0 1-.06.32l-.13.07a4.44 4.44 0 0 0-.27 1.57c2-1.64 1.74-3.54 2.33-4.95-.43.78-.84 1.57-1.3 2.32-.8-.81.55-1.07.23-2.18 1.24-.76 1.11-2.09 2-2.78-.16.23-.09.31-.25.54 1.61-2.38 3.52-2.12 4.18-3.07s1.38-3 .61-2.56c.16-.7-1.92 3.4-2.07 1.28 2.57-1 1.63-3.74 4.14-5.64-.38 1.61 1.2-.37.8 1a4.18 4.18 0 0 0 .69-2.55l.66-.22c.31-2.4-.45-.86.78-4-.28 1.15 1.21-.89 1 0a7.39 7.39 0 0 0 .95-2.38v.23c1.49-3.09 1.86-2.2 2.94-5.17l-.35.17c1.3-3.91 4.18-8.26 5.68-12.24l-.78 1.28a30.5 30.5 0 0 1 1.8-3.77 7.34 7.34 0 0 1-.36.9c.2 0 .68-.31 1.15-1.22l-.09-.46.37-.29c.67-1.41-.56.26.11-1.15 1.21-.66 2.78-6.28 3.76-7.17 0-1.13-1.17 2.72-1.13 1.49a9.27 9.27 0 0 0 .84-1.5l-.39.23a85 85 0 0 0 4.09-9.92v.17c1.26-3.49 1.85-5.33 3-9.19.1.25 1-3.08.72-1.67l.24-1.06c-.17 1.95-.83 5.21-1.47 7.24Zm-94.63 123.24h1.16c-.47.29-.7.44-1 .3Zm96.51-131.09c.05-.25.16-.73.22-1-.04.18-.15.82-.22 1Z"/><path class="cls-2" d="m303.62 304.25 19-7.27c-6.6-2.24-13.21-4.46-19.81-6.71l-45.31-15.62c-7.13-2.51-14.27-5-21.41-7.49-.28 6.13-.55 12.25-.86 18.37-.51 10.24-1 20.47-1.6 30.71l-.84 15.35v.3l26.14-10.3ZM407.78 350.55c11.82-4.47 23.62-9 35.46-13.43l-4-1.32-22.78-7.43-22.74-7.54c-9.13-3-18.25-6.09-27.37-9.14-2.64.93-5.27 1.88-7.91 2.8l-45.22 15.85L267.87 346l-36.69 12.43c-1.05 16.66-2.18 33.32-3.55 50-1.15-15.92-2.1-31.84-3-47.76l-2.18.74-29.69 9.86.59 11.17c.61 11.41 1.13 22.82 1.66 34.24q.39 8.46.8 16.91l22.23-9 37.84-15.07c12.6-5.06 25.26-9.95 37.89-14.93s25.27-9.94 37.94-14.8l38-14.67ZM223.36 335.61l-.2-4.06-.71-15.36c-.49-10.24-.9-20.48-1.31-30.72-.34-8-.62-15.93-.9-23.9-2.65-.93-5.3-1.85-7.94-2.79q-13.45-4.8-26.92-9.59c1.54 21.57 2.91 43.14 4.23 64.71l2 34.23v.16l22.77-9.13ZM310.58 265.91q26.32 7.77 52.62 15.63 15-5.64 30-11.29l22.43-8.4 25.57-9.44v-1.08l-6.43-2.22-16.18-5.69-32.36-11.36c-10.79-3.77-21.54-7.67-32.31-11.5s-21.53-7.66-32.28-11.56l-32.24-11.72c-10.75-3.88-21.47-7.88-32.19-11.83L239.7 179l-.49 14.42-1.21 30.69c-.26 6.86-.56 13.72-.86 20.58q13.71 3.93 27.41 7.84ZM144.61 234.48l-14.36-5.27-.5 18.73-.85 27.13q1.23 14.26 2.38 28.54c1 13.22 2.08 26.44 3 39.67q1 13.7 1.93 27.39l.33-.14 11.1-4.51 22.21-9 3.87-1.55.11-7 .74-34.27c.57-22.71 1.19-45.42 2-68.14-3.14-1.13-6.29-2.25-9.43-3.39ZM473 46.3c0-.23 1.7.65 2.41.59-1 .5.18 1.16 1.1.78.13 1-.21.29-.68.59.09.91 1.92-.09 1.16.62 1.48.17-1.31.6.53.66-.69 1.15 2.05.64.85 1.41.61-.45 1.89.51 1.7 1.35.89-.91 2.65.49.76 1.28 2.73-.47 3.15 1.36 4.94 1.36-.79.5-1 3.29.24 1.05 1 1 .51 2.26 1.61 1.58 1.32.88.89 1.07 2.14.76.89 1.92 1 1.75 3.18 1.33-1.41 1.22-.87.43-.54 2.12 3.2-.68 2.73.61.6.58 1.76 1 2.22.43 2.57 1.86 1.86 1.51.91 1.56 3.75.65-.6.71-3 2.67-1.37.65-.55.43-1.71.61-.69.88.23 1 .7-.11 1.15-.27-.46 1.73-.16.68.78.69-1.85 1.55 1.12-.46-.46 1.31 2.22 1 1.79.22 4.89 1-5.71.52-1.78 2.59-3 1.45 2.31-1.37 1.47 1 1.2 1 1.52 1.53 1.06.34 3-.71.52 2.33-2.2 1.62-1.06 2.51 1.06 0 3.14.32 2.67 2.54.8.19.28.17-.1.36.75.21 1.55.21.29-.39 1.53-.91 2.39 1 3.25 1.59-.83 1.17-1.13 0-1.45-.33.74 2 3.94 3.93 4 3.19-.82-.12-.83-1.61-1.1-1.81-.67 1.56-.56-1-1.1-1.85-2.1-2.27-3-5.53-5.84-7.58-2-2.88-2-2.69-4.43-3.93.36-.44-5.21-5.46-4.25-6.63-2.56.69-1.12-.15-3.13-1-1.43-1.19-2.08-1.23-3.09-2.57-.92.85 1.59-3.1-.55-1.33 1.35-1.4-.7-.44-1.05-1.47-.68 1.47-1.18-1.38-1.35-.65-2.83-1.45-4.41-3.05-6.64-5-1.27-1.18-2.52-1.94-3.32-.32.11-1.68-2.1-3-4-4.31-1.06.45-14.85-8-18.44-7.81 10.99 6.48 16.05 8.06 18.87 12.22Z"/><path d="M473 46.3s0 .11.16.23ZM510.59 80.36l.13.35c.02-.09-.09-.27-.13-.35ZM510.25 79.47c.05.26.29.43.47.59-.15-.06-.39-.65-.47-.59ZM508.14 77.47c-.11.14-.58.24-.1.29-.04-.13.05-.18.1-.29ZM508.07 76.27l-.31-.26c-.28.1.24.45.31.26ZM507 77c.12 0 .43.21.29-.13-.14.13-.64-.21-.29.13Z"/></svg>