<?xml version="1.0" encoding="UTF-8"?> <svg xmlns="http://www.w3.org/2000/svg" width="125" height="33" viewBox="0 0 125 33" fill="none"> <path d="M0 0.80481H15.6412C18.6509 0.80481 21.007 1.54044 22.7094 3.01169C24.4119 4.48294 25.2631 6.61475 25.2631 9.40713C25.2631 10.8183 24.9287 12.1094 24.2599 13.2804C23.5911 14.4214 22.679 15.3071 21.5238 15.9377C23.1046 16.5082 24.2903 17.3789 25.0807 18.5499C25.8711 19.6909 26.2663 21.1921 26.2663 23.0537C26.2663 24.9453 25.8255 26.5967 24.9439 28.0079C24.0927 29.3891 22.907 30.455 21.387 31.2057C19.8974 31.9263 18.2405 32.2866 16.4165 32.2866H0V0.80481ZM14.3188 13.5957C15.5348 13.5957 16.4925 13.2954 17.1917 12.6949C17.8909 12.0944 18.2405 11.1336 18.2405 9.81247C18.2405 8.37125 17.8909 7.3804 17.1917 6.83994C16.5229 6.29948 15.4892 6.02925 14.0908 6.02925H6.93139V13.5957H14.3188ZM14.7292 27.0621C16.2189 27.0621 17.3437 26.7769 18.1037 26.2064C18.8941 25.6059 19.2893 24.57 19.2893 23.0988C19.2893 21.5975 18.8789 20.5166 18.0581 19.856C17.2677 19.1954 16.0821 18.8652 14.5012 18.8652H6.93139V27.0621H14.7292Z" fill="white"></path> <path d="M33.9336 7.33551C32.8696 7.33551 31.9727 6.99022 31.2431 6.29963C30.5135 5.60904 30.1487 4.7383 30.1487 3.68741C30.1487 2.66654 30.5135 1.81081 31.2431 1.12022C31.9727 0.399612 32.8696 0.0393066 33.9336 0.0393066C34.9976 0.0393066 35.8944 0.399612 36.6241 1.12022C37.3537 1.81081 37.7185 2.66654 37.7185 3.68741C37.7185 4.7383 37.3537 5.60904 36.6241 6.29963C35.8944 6.99022 34.9976 7.33551 33.9336 7.33551ZM30.4679 10.6683H37.3993V32.2867H30.4679V10.6683Z" fill="white"></path> <path d="M51.6051 32.9623C49.0515 32.9623 47.1058 32.2717 45.7682 30.8906C44.4609 29.4794 43.8073 27.5277 43.8073 25.0356V15.5776H40.6152V10.6684H43.8073V4.18286H50.6931V10.6684H55.8461V15.5776H50.6931V24.1348C50.6931 25.3959 50.9363 26.3117 51.4227 26.8822C51.9091 27.4226 52.7756 27.6929 54.022 27.6929C55.0252 27.6929 55.9829 27.4526 56.8949 26.9722V32.0616C55.4965 32.6621 53.7332 32.9623 51.6051 32.9623Z" fill="white"></path> <path d="M96.864 0.80481H103.795V14.4964L115.834 0.80481H124.088L110.59 16.1629L125 32.2866H116.746L103.795 17.8293V32.2866H96.864V0.80481Z" fill="white"></path> <path d="M94.0538 12.4355C94.9618 15.7827 94.7263 19.3323 93.3836 22.5338C92.041 25.7353 89.6661 28.4096 86.6277 30.1423C83.5892 31.8749 80.0567 32.5689 76.5781 32.1166C73.0996 31.6643 69.8694 30.091 67.3884 27.6407C64.9075 25.1903 63.3145 22 62.8566 18.5644C62.3987 15.1288 63.1013 11.64 64.8555 8.63896C66.6098 5.63797 69.3176 3.29254 72.5592 1.96645C75.8007 0.640355 79.3946 0.407701 82.7836 1.30457L78.6585 16.5097L94.0538 12.4355Z" fill="white"></path> </svg> 