<svg width="161" height="46" viewBox="0 0 161 46" fill="none" xmlns="http://www.w3.org/2000/svg">
<path d="M74.0203 22.0456C73.4002 20.5414 72.4355 19.3096 71.1098 18.3754C69.6684 17.3605 68.0533 16.835 66.3114 16.7098C65.1207 16.6236 63.9466 16.746 62.8028 17.0963C60.6668 17.7525 58.947 18.9843 57.7233 20.8834C56.8027 22.3097 56.3452 23.8946 56.235 25.5796C56.1578 26.7557 56.2239 27.9263 56.5051 29.0802C56.8744 30.5956 57.5441 31.9553 58.597 33.1036C60.3333 34.9971 62.5245 35.9369 65.0408 36.151C66.0082 36.2344 66.9756 36.1816 67.9348 36.0037C69.4341 35.7228 70.8066 35.1584 72.0276 34.2325C72.543 33.8404 73.0088 33.3956 73.4195 32.8617C72.6918 32.0804 71.9697 31.3046 71.2724 30.5539C70.8122 30.8514 70.396 31.1573 69.9495 31.4047C69.1227 31.8607 68.2214 32.0804 67.2843 32.1721C66.2232 32.275 65.1786 32.2055 64.1644 31.8718C62.428 31.2991 61.2759 30.1452 60.7605 28.3545C60.7964 28.3351 60.8019 28.3295 60.8129 28.3267C60.8212 28.3239 60.8322 28.3239 60.8405 28.3239C60.8598 28.3212 60.8791 28.3212 60.8956 28.3212C65.4267 28.3212 69.9578 28.3212 74.4861 28.3212C74.5054 28.3212 74.5247 28.3212 74.5412 28.3212C74.5495 28.3212 74.5605 28.3212 74.5688 28.3212C74.5881 28.3184 74.6046 28.3184 74.6239 28.3128C74.6322 28.31 74.6404 28.3045 74.6459 28.2989C74.6542 28.2934 74.6597 28.285 74.668 28.2795C74.8141 27.1728 74.8334 26.258 74.7479 25.157C74.6625 24.0809 74.431 23.041 74.0203 22.0456ZM60.6916 24.7538C60.7991 24.2255 60.9783 23.7473 61.2291 23.2968C61.987 21.9455 63.1391 21.1475 64.6439 20.8639C65.9448 20.6192 67.1823 20.8138 68.3344 21.4784C69.503 22.1513 70.2885 23.383 70.3905 24.7538H60.6916Z" fill="white"/>
<path d="M86.766 17.0391C81.7498 17.0391 77.668 21.1129 77.668 26.1253V35.9464H82.4499V26.1253C82.4499 23.7498 84.3847 21.8175 86.7632 21.8175C89.1418 21.8175 91.0766 23.7498 91.0766 26.1253V35.9464H95.8585V26.1253C95.8612 21.1156 91.7821 17.0391 86.766 17.0391Z" fill="white"/>
<path d="M48.8625 26.94C48.8625 29.3396 46.9277 31.2915 44.5492 31.2915C42.1706 31.2915 40.2358 29.3396 40.2358 26.94V17.022H35.4512V26.9428C35.4512 32.0033 39.533 36.1212 44.5492 36.1212C49.5653 36.1212 53.6444 32.0033 53.6444 26.9428V17.022H48.8625V26.94Z" fill="white"/>
<path d="M120.111 21.5844H124.117V35.9464H128.892V17.0391H120.111V21.5844Z" fill="white"/>
<path d="M141.44 31.6094C139.475 31.6094 137.877 29.9967 137.877 28.0142V21.5579H144.111V17.0479H137.877V9.81033H133.406V28.0142C133.406 32.4824 137.011 36.1165 141.438 36.1165C143.885 36.1165 146.076 35.0016 147.551 33.2554L144.37 30.0467C143.731 30.9921 142.656 31.6094 141.44 31.6094Z" fill="white"/>
<path d="M23.319 16.3444H23.2832C21.4751 16.3444 19.747 16.8449 18.2339 17.7624V9.84915H13.4493V26.2318C13.43 31.7038 17.826 36.1693 23.2501 36.1859H23.2832C28.6907 36.1859 33.1005 31.7566 33.1171 26.2985C33.1253 23.6487 32.1111 21.1546 30.2617 19.2722C28.4096 17.3954 25.9456 16.3527 23.319 16.3444ZM28.3352 26.2846C28.3269 29.0874 26.0614 31.3646 23.2832 31.3618H23.2666C21.9189 31.3562 20.6511 30.8224 19.7002 29.8576C18.7493 28.8927 18.2284 27.6109 18.2339 26.2485C18.2367 24.886 18.7686 23.6098 19.725 22.6477C20.6786 21.694 21.9409 21.1685 23.2832 21.1685H23.3025C24.653 21.1741 25.918 21.7079 26.8689 22.6728C27.8198 23.6404 28.3407 24.9222 28.3352 26.2846Z" fill="white"/>
<path d="M108.758 16.3444H108.723C106.915 16.3444 105.187 16.8449 103.673 17.7625V9.84918H98.8887V26.2318C98.8694 31.7038 103.265 36.1693 108.69 36.186H108.723C114.13 36.186 118.54 31.7567 118.557 26.2986C118.565 23.6487 117.551 21.1547 115.701 19.2723C113.849 17.3954 111.385 16.3527 108.758 16.3444ZM113.775 26.2847C113.766 29.0874 111.501 31.3646 108.723 31.3618H108.706C107.358 31.3563 106.091 30.8224 105.14 29.8576C104.189 28.8928 103.668 27.6109 103.673 26.2485C103.676 24.8861 104.208 23.6098 105.164 22.6478C106.118 21.6941 107.38 21.1686 108.723 21.1686H108.742C110.092 21.1741 111.357 21.708 112.308 22.6728C113.259 23.6404 113.78 24.9222 113.775 26.2847Z" fill="white"/>
</svg>
