<svg width="171" height="24" fill="none" xmlns="http://www.w3.org/2000/svg"><path fill-rule="evenodd" clip-rule="evenodd" d="M12.018 24c6.637 0 12.018-5.373 12.018-12S18.656 0 12.018 0C5.38 0 0 5.373 0 12s5.38 12 12.018 12zm6.676-18.667H5.341v13.334h13.353V5.333z" fill="#fff"/><path fill-rule="evenodd" clip-rule="evenodd" d="M12.018 24c6.637 0 12.018-5.373 12.018-12S18.656 0 12.018 0C5.38 0 0 5.373 0 12s5.38 12 12.018 12zm6.676-18.667H5.341v13.334h13.353V5.333z" fill="#fff"/><path d="M40.958 2.436c1.837 0 3.267.46 4.29 1.378 1.04.901 1.56 2.114 1.56 3.64 0 .85-.2 1.586-.598 2.21-.399.606-.98 1.083-1.742 1.43v.104c.936.364 1.664.91 2.184 1.638.52.728.78 1.63.78 2.704 0 1.698-.538 3.033-1.612 4.004-1.058.97-2.557 1.456-4.498 1.456h-9.308V2.436h8.944zm-.728 7.67c.866 0 1.525-.2 1.976-.598.468-.399.702-.97.702-1.716s-.234-1.318-.702-1.716c-.451-.416-1.11-.624-1.976-.624h-4.316v4.654h4.316zm.312 7.8c.953 0 1.672-.217 2.158-.65.502-.45.754-1.075.754-1.872 0-.798-.252-1.413-.754-1.846-.486-.45-1.205-.676-2.158-.676h-4.628v5.044h4.628zM52.588 2.176V21h-3.64V2.176h3.64zM61.114 6.908c1.421 0 2.66.294 3.718.884a6.018 6.018 0 0 1 2.444 2.522c.572 1.092.858 2.366.858 3.822s-.286 2.73-.858 3.822a6.056 6.056 0 0 1-2.444 2.496c-1.058.572-2.297.858-3.718.858-1.439 0-2.696-.286-3.77-.858a6.056 6.056 0 0 1-2.444-2.496c-.555-1.092-.832-2.366-.832-3.822 0-1.474.277-2.748.832-3.822a6.017 6.017 0 0 1 2.444-2.522c1.074-.59 2.331-.884 3.77-.884zm0 11.674c1.022 0 1.828-.382 2.418-1.144.59-.763.884-1.864.884-3.302 0-1.456-.295-2.566-.884-3.328-.59-.78-1.396-1.17-2.418-1.17-1.04 0-1.864.39-2.47 1.17-.59.762-.884 1.872-.884 3.328 0 1.438.294 2.54.884 3.302.606.762 1.43 1.144 2.47 1.144zM76.641 18.608c1.56 0 2.566-.893 3.016-2.678l3.666.416c-.346 1.37-1.057 2.54-2.132 3.51-1.074.97-2.591 1.456-4.55 1.456-1.404 0-2.626-.286-3.666-.858a5.935 5.935 0 0 1-2.392-2.496c-.554-1.092-.832-2.366-.832-3.822s.278-2.73.832-3.822a5.9 5.9 0 0 1 2.392-2.522c1.04-.59 2.262-.884 3.666-.884 1.907 0 3.38.45 4.42 1.352 1.04.901 1.725 1.898 2.054 2.99l-3.536.806c-.502-1.612-1.482-2.418-2.938-2.418-.988 0-1.768.39-2.34 1.17-.572.762-.858 1.872-.858 3.328 0 1.438.286 2.548.858 3.328.572.762 1.352 1.144 2.34 1.144zM88.177 21h-3.64V2.176h3.64v10.4l4.966-5.33h4.186l-5.148 5.278L97.927 21H93.69l-3.978-6.058-1.534 1.586V21zM109.911 7.532h-.104L107.025 21h-4.732L97.821 2.436h4.004l2.886 13.91h.104l2.834-13.91h4.368l2.834 13.91h.104l2.912-13.91h4.03L117.425 21h-4.68l-2.834-13.468zM131.151 21c-.121-.139-.216-.373-.286-.702a6.327 6.327 0 0 1-.104-1.222c-.381.71-.996 1.265-1.846 1.664a6.41 6.41 0 0 1-2.704.572 5.379 5.379 0 0 1-2.288-.494 4.319 4.319 0 0 1-1.69-1.404c-.416-.624-.624-1.352-.624-2.184 0-1.404.477-2.444 1.43-3.12.954-.676 2.384-1.127 4.29-1.352 1.318-.174 2.21-.364 2.678-.572.486-.226.728-.555.728-.988 0-.52-.199-.928-.598-1.222-.398-.312-.996-.468-1.794-.468-.658 0-1.248.173-1.768.52-.502.346-.858.858-1.066 1.534l-3.354-.52c.295-1.283 1.006-2.288 2.132-3.016 1.127-.746 2.505-1.118 4.134-1.118 1.994 0 3.484.398 4.472 1.196.988.797 1.482 1.88 1.482 3.25v6.89c0 .797.018 1.395.052 1.794.052.381.156.702.312.962h-3.588zm-.416-6.786c-.208.173-.563.32-1.066.442-.485.104-1.126.208-1.924.312-.728.121-1.317.355-1.768.702-.433.33-.65.797-.65 1.404 0 .554.174.988.52 1.3.364.294.858.442 1.482.442.538 0 1.066-.113 1.586-.338.52-.226.954-.572 1.3-1.04.347-.486.52-1.084.52-1.794v-1.43zM140.14 2.176V21h-3.64V2.176h3.64zM146 2.176V21h-3.64V2.176H146zM161.377 16.918c-.329 1.196-1.04 2.227-2.132 3.094-1.092.866-2.626 1.3-4.602 1.3-1.404 0-2.626-.286-3.666-.858a5.937 5.937 0 0 1-2.392-2.496c-.554-1.092-.832-2.366-.832-3.822 0-1.474.269-2.748.806-3.822.555-1.092 1.344-1.933 2.366-2.522 1.04-.59 2.271-.884 3.692-.884 1.37 0 2.574.277 3.614.832 1.04.554 1.846 1.378 2.418 2.47.572 1.074.858 2.366.858 3.874 0 .346-.008.615-.026.806h-10.036c.035 1.161.338 2.097.91 2.808.572.693 1.335 1.04 2.288 1.04.902 0 1.586-.208 2.054-.624.468-.434.789-.936.962-1.508l3.718.312zm-6.76-7.462c-.918 0-1.655.294-2.21.884-.537.59-.84 1.326-.91 2.21h6.266c-.069-.902-.381-1.638-.936-2.21-.537-.59-1.274-.884-2.21-.884zM170.896 18.166V21c-.485.034-1.283.052-2.392.052-.988 0-1.768-.087-2.34-.26-.572-.19-.997-.52-1.274-.988-.277-.485-.416-1.179-.416-2.08V9.69h-2.184V7.246h2.184V3.398h3.64v3.848H171V9.69h-2.886v7.124c0 .572.113.944.338 1.118.243.156.667.234 1.274.234h1.17z" fill="#fff"/></svg>