<svg width="447" height="100" viewBox="0 0 447 100" fill="none" xmlns="http://www.w3.org/2000/svg">
<path d="M55.5112 60.2109C55.476 60.2109 50.9142 61.9447 50.8789 61.9699L40.3455 65.8207C39.265 66.1888 38.351 66.9304 37.7675 67.9124L21.9875 96.5611C19.621 100.85 11.3584 99.545 11.3584 94.8727V46.9449L54.7459 56.2442C57.4397 56.9498 57.8173 58.9206 55.5112 60.2109Z" fill="#EDEC1F"/>
<path d="M58.7689 12.1518L56.191 11.4916C56.191 11.4916 58.7891 13.926 53.7338 15.2869L16.3583 26.8795C14.9634 27.2882 13.7076 28.0728 12.7279 29.1476C11.865 30.094 11.3778 31.3239 11.3584 32.6052V46.9497L54.7459 56.249C57.3792 56.9446 57.7669 58.8044 55.6673 60.125L58.925 58.9103C59.7782 58.6108 60.536 58.0888 61.1203 57.3982C61.6337 56.784 61.92 56.0115 61.931 55.2107V15.8968C61.882 15.0766 61.5613 14.2963 61.0196 13.6791C60.4107 12.9909 59.6358 12.4704 58.7689 12.167V12.1518Z" fill="#26A67D"/>
<path d="M11.3592 46.9456V32.596C11.3786 31.3147 11.8658 30.0848 12.7287 29.1383C13.7084 28.0636 14.9642 27.279 16.359 26.8702L53.7296 15.2777C58.7647 13.9218 56.1918 11.4823 56.1918 11.4823L56.4536 11.5529L56.373 11.5277L10.3371 0.282919C9.13068 -0.00607869 7.88203 -0.0743927 6.65137 0.0812964C5.45517 0.227223 4.29894 0.605615 3.24763 1.1952C2.28984 1.72208 1.4716 2.47031 0.860999 3.37764C0.30578 4.20144 0.00623225 5.17115 0 6.16488V39.4305C0.0250624 40.7459 0.540495 42.0043 1.44507 42.9587C2.47714 44.0515 3.79387 44.8336 5.24657 45.2167" fill="#32D35E"/>
<path d="M89.695 69.7394H109.811V77.6227H79.9365V18.0742H89.695V69.7394ZM112.696 53.8013C112.61 49.4245 113.61 45.0947 115.607 41.2C117.469 37.6896 120.255 34.7559 123.663 32.7169C127.073 30.6642 130.984 29.5965 134.963 29.6321C138.323 29.5489 141.65 30.3151 144.636 31.86C147.24 33.1316 149.523 34.9772 151.312 37.2584V30.4234H161.146V77.6378H151.302V70.6013C149.499 72.9405 147.186 74.8368 144.54 76.1458C141.516 77.6713 138.167 78.436 134.781 78.3737C130.857 78.4089 127.001 77.34 123.653 75.289C120.245 73.1378 117.465 70.1224 115.597 66.5487C113.621 62.5964 112.626 58.2255 112.696 53.8063V53.8013ZM151.302 53.9727C151.369 51.0131 150.653 48.0884 149.228 45.4946C148.038 43.2146 146.237 41.312 144.026 40.0004C141.897 38.7551 139.473 38.1041 137.007 38.1153C134.541 38.1041 132.117 38.7551 129.988 40.0004C127.75 41.2688 125.912 43.1388 124.68 45.3988C123.309 47.9802 122.631 50.8737 122.712 53.7962C122.645 56.7721 123.322 59.7175 124.68 62.3651C125.922 64.6847 127.753 66.6355 129.988 68.0206C132.123 69.2522 134.543 69.9021 137.007 69.9057C139.473 69.9168 141.897 69.2658 144.026 68.0206C146.234 66.7145 148.035 64.8191 149.228 62.5466C150.647 59.9177 151.362 56.9655 151.302 53.9777V53.9727ZM183.322 38.3774V64.5124C183.322 66.2816 183.725 67.5669 184.521 68.3684C185.316 69.1698 186.807 69.4823 188.801 69.4823H194.793V77.6227H187.089C182.698 77.6227 179.331 76.5945 176.988 74.5379C174.645 72.4814 173.47 69.1395 173.463 64.5124V38.3824H167.924V30.4234H173.478V18.674H183.322V30.4234H194.793V38.3925L183.322 38.3774ZM198.514 53.8013C198.514 49.0599 199.484 44.8594 201.424 41.2C203.285 37.6859 206.072 34.7495 209.482 32.71C212.893 30.6705 216.797 29.6059 220.77 29.6321C224.13 29.5493 227.457 30.3155 230.443 31.86C233.047 33.1316 235.33 34.9772 237.12 37.2584V30.4234H246.964V77.6378H237.12V70.6013C235.315 72.9392 233.003 74.8353 230.357 76.1458C227.077 77.7456 223.452 78.5048 219.806 78.3553C216.16 78.2057 212.609 77.1521 209.471 75.289C206.061 73.1391 203.281 70.1233 201.414 66.5487C199.436 62.5973 198.441 58.2257 198.514 53.8063V53.8013ZM237.12 53.9727C237.193 51.0132 236.485 48.0868 235.065 45.4895C233.868 43.2779 232.098 41.4297 229.941 40.1389C227.784 38.8482 225.32 38.1624 222.807 38.1536C220.294 38.1449 217.825 38.8134 215.659 40.0891C213.494 41.3648 211.711 43.2006 210.498 45.4038C209.127 47.9852 208.448 50.8787 208.529 53.8013C208.462 56.7771 209.139 59.7225 210.498 62.3701C211.739 64.6897 213.57 66.6405 215.805 68.0256C217.94 69.2572 220.36 69.9072 222.825 69.9107C225.344 69.9253 227.819 69.2454 229.978 67.9456C232.137 66.6458 233.897 64.7761 235.065 62.5415C236.477 59.9123 237.185 56.962 237.12 53.9777V53.9727ZM314.851 29.6371C318.299 29.571 321.711 30.3606 324.78 31.9356C327.733 33.4638 330.151 35.8546 331.714 38.7907C333.426 41.815 334.282 45.471 334.282 49.7588V77.6076H324.609V51.2357C324.609 47.005 323.553 43.7774 321.442 41.5529C319.334 39.2679 316.452 38.1253 312.796 38.1253C309.141 38.1253 306.23 39.2679 304.065 41.5529C301.957 43.7808 300.901 47.0084 300.898 51.2357V77.6278H291.225V51.2357C291.225 47.005 290.169 43.7774 288.058 41.5529C285.949 39.2679 283.068 38.1253 279.412 38.1253C275.756 38.1253 272.846 39.2679 270.681 41.5529C268.572 43.7808 267.517 47.0084 267.513 51.2357V77.6278H257.755V30.4234H267.513V35.8218C269.153 33.8504 271.236 32.2958 273.591 31.2854C276.072 30.1926 278.756 29.6377 281.466 29.6573C284.981 29.5949 288.455 30.42 291.567 32.0566C294.5 33.619 296.889 36.0381 298.415 38.9923C299.881 36.094 302.216 33.7271 305.092 32.2229C308.062 30.5201 311.428 29.6301 314.851 29.6422V29.6371ZM387.904 52.8638C387.915 54.4698 387.8 56.0742 387.561 57.6623H351.523C351.812 61.4326 353.21 64.4569 355.718 66.7352C358.244 69.0252 361.555 70.2528 364.963 70.1628C370.216 70.1628 373.925 67.9634 376.091 63.5647H386.62C385.223 67.8686 382.499 71.6186 378.84 74.2758C375.127 77.0178 370.505 78.3888 364.973 78.3888C360.73 78.4557 356.543 77.4226 352.817 75.3898C349.295 73.3496 346.395 70.3872 344.428 66.8209C342.414 63.1044 341.416 58.82 341.432 53.9676C341.449 49.1153 342.419 44.8594 344.343 41.2C346.228 37.6025 349.111 34.6269 352.646 32.6312C356.428 30.5845 360.674 29.5513 364.973 29.6321C369.124 29.5559 373.224 30.5598 376.871 32.5455C380.315 34.4486 383.138 37.3045 385.003 40.7716C386.997 44.4841 387.996 48.65 387.904 52.8638ZM377.717 49.779C377.663 46.1801 376.379 43.2952 373.865 41.1244C371.351 38.9536 368.241 37.8683 364.535 37.8683C361.342 37.8013 358.246 38.9673 355.889 41.1244C353.492 43.2347 352.065 46.1196 351.609 49.779H377.717ZM415.684 53.7206L430.921 77.6278H419.878L409.692 61.604L400.124 77.6278H389.918L405.155 54.4062L389.918 30.4234H400.96L411.147 46.4472L420.714 30.4234H430.9L415.684 53.7206Z" fill="#32D35E"/>
<path d="M440.115 78.2283C438.458 78.2283 436.868 77.5693 435.697 76.3962C434.525 75.2231 433.866 73.632 433.866 71.973C433.866 70.314 434.525 68.723 435.697 67.5499C436.868 66.3768 438.458 65.7178 440.115 65.7178C440.927 65.7032 441.733 65.8553 442.484 66.1648C443.235 66.4743 443.915 66.9346 444.481 67.5172C445.634 68.7133 446.278 70.3107 446.278 71.973C446.278 73.6353 445.634 75.2327 444.481 76.4288C443.915 77.0115 443.235 77.4718 442.484 77.7813C441.733 78.0907 440.927 78.2429 440.115 78.2283Z" fill="#EDEC1F"/>
</svg>
