<?xml version="1.0" encoding="UTF-8"?><svg id="a" xmlns="http://www.w3.org/2000/svg" viewBox="0 0 122.21048 102.2602"><path d="M102.2602,51.10817c.01211,28.23837-22.86979,51.13991-51.10817,51.15203C22.91366,102.2723,.01212,79.39039,0,51.15202-.0121,22.91365,22.86981,.01212,51.10818,0h.02193c28.22981,0,51.118,22.87836,51.1301,51.10817" style="fill:#fff;"/><path d="M97.65047,51.11009c.01105,25.75856-20.86143,46.64895-46.62,46.66-25.75856,.01104-46.64895-20.86144-46.66-46.62-.01104-25.75856,20.86144-46.64895,46.62-46.66h.02c25.75075,0,46.62896,20.86925,46.64,46.62" style="fill:#0083ff;"/><rect x="45.08048" y="25.60009" width="4" height="4" rx="1.82" ry="1.82" style="fill:#fff;"/><rect x="45.08048" y="32.6001" width="4" height="4" rx="1.82" ry="1.82" style="fill:#fff;"/><rect x="26.08048" y="53.6001" width="4" height="4" rx="1.82" ry="1.82" style="fill:#fff;"/><rect x="32.08048" y="53.6001" width="4" height="4" rx="1.82" ry="1.82" style="fill:#fff;"/><rect x="38.08048" y="39.6001" width="12" height="4" rx="1.82" ry="1.82" style="fill:#fff;"/><rect x="39.08048" y="53.6001" width="4" height="12" rx="1.82" ry="1.82" style="fill:#fff;"/><rect x="56.08048" y="53.6001" width="17" height="4" rx="1.82" ry="1.82" style="fill:#fff;"/><rect x="30.08048" y="46.6001" width="17" height="4" rx="1.82" ry="1.82" style="fill:#fff;"/><rect x="66.08047" y="45.6001" width="4" height="4" rx="1.82" ry="1.82" style="fill:#fff;"/><rect x="53.08048" y="59.6001" width="12" height="4" rx="1.82" ry="1.82" style="fill:#fff;"/><rect x="53.08048" y="66.60009" width="4" height="4" rx="1.82" ry="1.82" style="fill:#fff;"/><rect x="53.08048" y="73.60009" width="4" height="4" rx="1.82" ry="1.82" style="fill:#fff;"/><rect x="52.08048" y="29.60009" width="4" height="17" rx="1.82" ry="1.82" style="fill:#fff;"/><rect x="47.08048" y="56.6001" width="4" height="17" rx="1.82" ry="1.82" style="fill:#fff;"/><rect x="60.08048" y="37.6001" width="4" height="12" rx="1.82" ry="1.82" style="fill:#fff;"/><path d="M83.74048,43.65009l32.4-18.74s.71-6.71-11.81-6.58-19.61001,8.32-20.56001,15.69,0,9.64,0,9.64" style="fill:#006e36;"/><path d="M116.66047,24.11009l-32.41,18.72s-.71,6.7,11.81,6.58,19.62-8.3,20.56-15.68,0-9.64,0-9.64" style="fill:#00b22b;"/><path d="M120.48047,21.03009c-.79-.46-6.39-2.92-15.28-3.24-4.46583-.22734-8.91161,.73913-12.88,2.8-1.23026,.65226-2.39844,1.41543-3.49,2.28-8,6.32-8.23,14.11-8.76,18.61l-6.35,3.1c-.98301,.41177-1.62202,1.37423-1.62,2.44,.04338,1.47477,1.2546,2.64606,2.73,2.64,.42145-.06182,.83885-.14864,1.25-.26h0l1.42-.77,2.91-1.54,1.41-.68c4.30452,2.45619,9.12155,3.87699,14.07,4.15,3.74937,.16771,7.48673-.5339,10.92-2.05,.47-.21,.94-.44,1.39-.68,13.17-7,13.74-22.86,13.88-24.77l.13-1-1.73-1.03Zm-3.81,4.59v.07c-.91,5-3.59,14-11.3,18.11l-.21,.1c-2.96133,1.49818-6.24158,2.25648-9.56,2.21-2.31703-.09819-4.6106-.50512-6.82-1.21l-1.92-.82,2.12-1.1,7.94-4.2c1.01258-.52401,1.65725-1.56009,1.68-2.7,.12264-.31842,.15382-.66479,.09-1-.03835-.09883-.08173-.19562-.13-.29v-.08h0c-.58434-.87104-1.59473-1.35711-2.64-1.27-.55666-.02031-1.10876,.10736-1.6,.37l-7.88,4.16-1.49,.78s1.24998-10.11,8.32999-13.64c.55-.28,1.05-.68,1.62-1,2.98319-1.50833,6.31306-2.19846,9.65-2,3.85435,.20577,7.64074,1.09987,11.18,2.64l.46999,.16,.49,.2-.02,.51Z" style="fill:#fff;"/></svg>