<?xml version="1.0" encoding="UTF-8"?> <svg xmlns="http://www.w3.org/2000/svg" id="Layer_1" data-name="Layer 1" viewBox="0 0 87.31 87.31"><defs><style>.cls-1{fill:#00a59b;}.cls-2{fill:#04364f;}.cls-3{fill:#fff;}</style></defs><g id="Group_1780" data-name="Group 1780"><g id="Group_1779" data-name="Group 1779"><g id="Group_1771" data-name="Group 1771"><circle id="Ellipse_15" data-name="Ellipse 15" class="cls-1" cx="43.66" cy="43.66" r="43.66"></circle></g><g id="Group_1772" data-name="Group 1772"><circle id="Ellipse_16" data-name="Ellipse 16" class="cls-2" cx="43.66" cy="43.66" r="39.42"></circle></g><g id="Group_1773" data-name="Group 1773"><rect id="Rectangle_1340" data-name="Rectangle 1340" class="cls-1" x="6" y="60.44" width="77.07" height="1.72"></rect></g><g id="Group_1774" data-name="Group 1774"><path id="Path_4918" data-name="Path 4918" class="cls-3" d="M43.66,2.21A41.45,41.45,0,1,0,85.1,43.66,41.45,41.45,0,0,0,43.66,2.21Zm0,81.88A40.43,40.43,0,1,1,84.09,43.66h0A40.43,40.43,0,0,1,43.66,84.09Z"></path></g><g id="Group_1775" data-name="Group 1775"><path id="Path_4919" data-name="Path 4919" class="cls-3" d="M43.66,3.22A40.44,40.44,0,1,0,84.09,43.66,40.45,40.45,0,0,0,43.66,3.22Zm0,79.85A39.42,39.42,0,1,1,83.07,43.66,39.41,39.41,0,0,1,43.66,83.07Z"></path></g><g id="Group_1778" data-name="Group 1778"><g id="Group_1776" data-name="Group 1776"><rect id="Rectangle_1341" data-name="Rectangle 1341" class="cls-3" x="20.16" y="17.45" width="7.62" height="52.41"></rect></g><g id="Group_1777" data-name="Group 1777"><path id="Path_4920" data-name="Path 4920" class="cls-3" d="M58.85,17.45,44,51.44,35.85,33.28V51.21l4.39,18.65h7.08L59.48,31.05V69.86h7.68V17.45Z"></path></g></g></g></g></svg> 