<svg width="11" height="20" viewBox="0 0 11 20" fill="none" xmlns="http://www.w3.org/2000/svg">
<path d="M0.233431 0.23503C0.38324 0.0848412 0.586568 0.000300846 0.798699 8.01386e-07C1.01083 -0.000299243 1.2144 0.0836657 1.36463 0.233431L10.139 8.97743C10.221 9.05918 10.2861 9.15631 10.3305 9.26325C10.3749 9.37019 10.3977 9.48484 10.3977 9.60063C10.3977 9.71642 10.3749 9.83107 10.3305 9.93801C10.2861 10.045 10.221 10.1421 10.139 10.2238L1.36463 18.9678C1.21355 19.1134 1.01135 19.1937 0.801582 19.1916C0.59182 19.1895 0.391279 19.1051 0.243157 18.9565C0.0950351 18.808 0.0111835 18.6072 0.00966343 18.3974C0.00814337 18.1877 0.0890764 17.9857 0.23503 17.835L8.49903 9.59983L0.23503 1.36623C0.0848412 1.21642 0.000300846 1.01309 8.01386e-07 0.800962C-0.000299243 0.588831 0.0836657 0.385265 0.233431 0.23503Z" fill="#00B520"/>
</svg>
