<svg width="14" height="26" viewBox="0 0 14 26" fill="none" xmlns="http://www.w3.org/2000/svg">
<path d="M0.306409 0.308509C0.503055 0.111366 0.76995 0.000394901 1.0484 1.05193e-06C1.32685 -0.000392797 1.59406 0.109823 1.79126 0.306409L13.3089 11.7841C13.4165 11.8914 13.5019 12.0189 13.5602 12.1593C13.6184 12.2997 13.6484 12.4501 13.6484 12.6021C13.6484 12.7541 13.6184 12.9046 13.5602 13.045C13.5019 13.1854 13.4165 13.3129 13.3089 13.4202L1.79126 24.8979C1.59294 25.0889 1.32753 25.1944 1.05219 25.1916C0.776844 25.1888 0.513607 25.078 0.319177 24.883C0.124746 24.688 0.0146798 24.4245 0.0126846 24.1492C0.0106893 23.8738 0.116925 23.6087 0.308509 23.4109L11.1561 12.6011L0.308509 1.79336C0.111366 1.59672 0.000394901 1.32982 1.05193e-06 1.05137C-0.000392797 0.77292 0.109823 0.505712 0.306409 0.308509Z" fill="#828183" fill-opacity="0.84"/>
</svg>
