<svg height="50" viewBox="0 0 178 50" width="178" xmlns="http://www.w3.org/2000/svg"><g fill="none"><g fill="#0064ff"><path d="m28.5597718 1.07358009.2258718.12132933.232846.12857245.2402985.135924.2482295.14338398.2566388.1509524.2655264.15862923 1.1859169.71329324.2003726.11597262.5469941.30673425.2665069.14701343.1370832.07459351.2826727.15185379.2951433.15606705.3089687.1610694.4711265.2416644 3.1094528 1.55809415.3735062.19020822.3629854.18700345.352729.18402179.3427369.18126322.4147726.22303967.4000896.21951377.309847.17336517.3010447.17161057.2925069.17007906.1431344.08453494.280196.16820012.2723191.16722637c.0894897.05560462.1777106.11108414.2647068.16647573l.2573588.16594818c.1268864.08287938.2511165.1656446.372839.24842115l.2401456.16560538c.3553353.24854228.6889945.49793948 1.0049931.75157996l.2080934.16975947c.274087.2272833.534925.45851424.7853344.69607256l.1858958.1793924c2.1644543 2.124754 1.7004534 5.3310143-.8046283 7.1191152-.3504304.2329186-.7129287.4459418-1.1368339.6726088l-.2459824.1295847-.6213937.3154883-.2727259.1364656.6751388.8496828.229534.2915573.3173916.4088779.1981363.259757.1909552.2544095.093745.126516c.8854085 1.2001783 1.5616716 2.274625 2.0368327 3.3000465.0891481.192386.1704536.381817.2437519.5682026l.0706231.1853671c.9285377 2.5193861.3512454 4.4643462-2.1522232 5.6045061l-.0924505.0413536-.0261315.0098825-.170903.052304-.1132119.0319568-.1149589.0301959-.1186996.028923-.1244337.0281379-.2017631.0418022-.2258787.0427803-.1673061.0298767-.2810231.0480698-.41761.0697305v14.6416454l.0318197-.0068882c1.9042492-.4470014 3.3994868-1.7471083 4.7067614-3.8822972l.0798043-.1317691.105375-.1785375.524069-.917082.0400749-.0681079.1039694-.1708199c.9176047-1.4765954 1.8188579-2.0937918 3.0712691-1.6059091 1.4518184.5514125 1.5813246 2.1802758.8800753 3.8747574-1.0006697 2.6693353-3.0412505 5.1077659-5.4292832 6.4841085-3.3189361 1.9393216-7.3697439 1.302083-8.2983785-2.16446-.2174174-.8091809-.289046-1.7055409-.269242-2.8945639l.0093794-.3951275.0192884-.5267722.037515-.8894658.0143162-.4011672.0056909-.2208152.0037147-.2925501-.0000049-10.2544531h-4.9846026l.0010354 12.4961864.0055017.5174252.0002538.3160928-.0016518.1385027-.0050215.1939327-.0052096.1255747-.0068319.1270043c-.0984343 1.6528649-.6386334 2.6379221-1.9173762 2.7241787-1.0438274.158971-1.739546-.3524085-2.1037069-1.3430705-.2498595-.6797169-.3304948-1.4776225-.3304811-2.5321939l-.0084664-.9990748-.006988-1.2877255-.0023952-.8081515-.0011293-.8449492.0186893-8.4249732-.0000082-.3987589h-4.9846026l.0006987 10.2431424.0062928.2571538.0167509.5006381.0051672.2194771.0016739.1915935-.0008433.1204911-.0024237.1204779c-.0324264 1.2307199-.345433 2.0387067-1.1659445 2.4022824-1.6456048.7334979-2.9257056-.6191152-3.2231171-2.5670421-.0208171-.1873225-.039814-.3716213-.057055-.5546355l-.0245526-.2737752-.0167149-.2048515-.0212291-.2906793-.0125821-.1947817-.0214717-.3940385-.0089238-.2001839-.0111686-.3055353-.0085594-.3132372-.006008-.3225035-.0035142-.3333343-.0010781-.3457295.0022522-.482958.0085529-.6442457.0146787-.6960593.0253245-.9138625.0272154-.835543.0732731-2.1387818.0209552-.7607183.011564-.583167.004919-.4043127.0018121-.2952805h-3.2845034l.0012938 11.6860239.0064715.3786038.0224939 1.0107001.0032938.2732022-.0001082.3072097-.0013155.1226266c-.0192233 1.4313137-.2104202 2.4860885-.7035089 3.3744547-.9641289 1.7605002-2.7134695 2.1838071-5.03316344 1.6938485l-.21913571-.0485962c-.22079355-.051246-.44654097-.1104023-.6770652-.1771196l-.11565937-.0339871c-1.10592107-.3166439-2.10433915-.766737-3.03841638-1.3747714-2.0706119-1.2427783-3.7625787-3.3232862-4.4190894-5.5483169l-.03605071-.1260948c-.46967355-1.5608763-.17960004-3.0304822 1.10395804-3.5116928 1.20609772-.4278823 2.06384934.1261488 3.00855583 1.5565967l.11156936.1723251c.03734102.0587853.07484201.118912.11252924.1803738l.15550578.2594894.47793375.8200152.09788829.1618879.04620178.0744647.08762388.1368977.08219101.1220918.03941069.0559571.07615678.102664.03702811.0470776c1.02883954 1.2556733 2.26155203 2.0362351 4.16491152 2.7436946l.24470985.0892027v-14.5493782l-.25622049-.0019167-.24362335-.0037195-.11576447-.0025711-.22041768-.006718c-.03556723-.001305-.0705718-.0027061-.10504646-.0042084l-.20075132-.0102684-.09609812-.0061214-.18462428-.0143704-.08891942-.0083103-.17203655-.0190241c-.28093601-.0344796-.53509896-.0831631-.79526027-.1511589l-.15707875-.0431558-.14350765-.0426998c-3.51390823-1.0330403-4.09211515-3.4312665-2.46165523-6.695332.47575626-.9524304 1.12328869-1.9522422 1.93185705-3.0268131l.22120372-.2908075.21884519-.2829111.20350695-.2580891.22917572-.2845045.25319243-.3081198.23069374-.2769461.49352912-.5867654-.01887466-.0075019c-1.63404878-.6807476-3.09315586-1.7795363-3.91275701-3.0238205l-.0668098-.1040213-.05911128-.096789c-1.02041067-1.7132889-.77495201-3.5307442.93083391-5.168595.06903109-.0639449.13872474-.1275046.20912066-.19071233l.21333431-.18860027c.57472158-.50029472 1.19693134-.98018117 1.88696954-1.45661861l.26198351-.17853549c.26524243-.17844007.54038077-.35669323.82648767-.53565382l.2898028-.17922952.14771803-.08985372.30121828-.18030959.30912656-.18127806.3172732-.18244528.3256582-.18381123.3342816-.18537592.3431432-.18713936.3522434-.18910154.4534643-.239439.4685213-.2432036.3859707-.19753425.3961435-.20039075 3.9277393-1.93922192.5323919-.26556245.4352249-.22012318.3877315-.2006122.369316-.19441438.2515929-.13471353.3147868-.17296498.8938593-.50280041.2605286-.14424427.2510213-.1363019.2421117-.12848622.1179015-.06135182.2298678-.11700024c1.2433316-.62276307 2.1501776-.90526107 3.1679507-.94234597l.094013-.00272081c1.2553113-.02176016 2.3058808.28755311 3.7895083 1.07251251zm-5.6004664 5.92842905-.0485.05838948-.0470387.06027505-7.6846716 10.14753403-.3902535.5139201-.2235862.2922837-.3131517.4157577-.3303338.445521-.4370742.5987502-.3689811.5124744-.3861521.5422251-.40332.5719718-.6371625.9137244-.3330602.4819535-.4590925.6686218-.4762463.6983518-.74652519 1.1032632-.38772973.5767089c-.0612459.0912822-.09401156.1992602-.09401156.3098115 0 .2895303.22002942.5267342.49911377.5477025l.04025355.0015068h30.04144346c.1126366 0 .2224471-.0359057.3140252-.1026796.2421933-.1765946.2979362-.5196707.1245058-.7662819l-2.1540315-3.0559749-1.9228723-2.7133859-1.8034792-2.5267284-1.153614-1.602601-.837466-1.1535651-.1730933-.2370712-1.3225871-1.7513411-2.8550646-3.75575212-1.2866975-1.68609565c-.1261373-.16515232-.2723592-.31332742-.4351575-.44097018-1.0220251-.80132358-2.4717335-.64485849-3.3083879.33170009zm-7.5512546 2.51052464-.507538.30547475-.5827197.34542817-.6931019.403896-.731227.4187683-.556591.3145678-.7170285.4010828-.7823638.4336391-1.48292108.8146616-.69081148.3772893.01579722.014053c.74986337.6722337 1.58180374 1.1820148 2.72485984 1.7089205l.1066856.0487757.0616169-.0848836.1742365-.2342422.1911055-.2489736.166841-.2124234.3794321-.4714273.6138689-.7545861.1951171-.2417262.1976186-.2486147.187554-.2399335.0900661-.1168634.1728371-.2278244.1632791-.22036c.026428-.0361317.0524662-.0719727.0781188-.107533l.1493224-.2100761c.2412719-.3447854.444831-.6635392.6149007-.9664015l.0980569-.1798916c.1411585-.2672201.2558748-.52321085.3472277-.77536414zm18.9656537.35808446 3.2723674 4.83359106.1012196-.0193992c.8850986-.1778619 1.656894-.473675 2.6041962-.9801463l.1311395-.071138-.0793367-.0805013c-1.4734782-1.4762538-3.5888011-2.7660761-5.7754235-3.5890091z"/><path d="m20.6715478 25.195017c-1.888359.4263161-3.3505809-.7076214-3.6267343-2.4568306-.2665265-1.6882304.6798737-3.2715567 2.435549-3.6114494l.085582-.0154712.1152456-.0178456c3.8232072-.5333575 4.7820361 5.2153943.9903577 6.1015968zm11.568302-4.0891425c.6006963 1.5863609-.0347793 3.2716512-1.7369566 3.9273619-1.808277.7247345-3.4419847-.1811197-4.0081805-1.8791378-.5492276-1.6471306.1345109-3.3690076 1.8366906-3.9134415 1.856975-.5649207 3.3257975.3265171 3.9084465 1.8652174z"/></g><g fill="#f2fafa" transform="translate(50.305649 2.197066)"><path d="m113.390723.46621812c1.061393.80575515 1.974938 2.45841996 1.842009 4.94999858l-.035673.63557645c-.004099.06809458-.00827.13539313-.012541.20194136l-.027027.39065127c-.133703 1.78443299-.387564 3.05225979-1.355341 4.80640422-1.186303 2.1511297-2.546698 4.2014384-3.948252 6.2281311l-.703592 1.0117358-1.110622 1.5870765c-.420362.6013783-.839324 1.2035956-1.253381 1.8086872l-.709733 1.0468274-.289024.4191079-.192376.2837419c-.283758.4267298-.537567.8558123-.649107 1.2511588-.471936 1.672737-.471936 3.5186033.421054 4.7159638.835766 1.1204497 2.243749 1.0122706 3.529056.5841957l.196678-.068259.19418-.0725713c.032124-.0124138.06412-.0249766.095977-.037673l.189379-.0776612.09326-.0398042.183312-.0810964.178565-.0824674.173256-.083103.084461-.0415602c1.214302-.6020202 2.417595-1.319685 3.432911-2.2147829.638548-.5631936 1.095645-1.4987881 1.331328-2.3542245.254145-.9216655.472972-1.8538752.684698-2.7880371l.315787-1.4016331c.264595-1.1674578.540135-2.3312535.881724-3.474606l.23601-.778141.124016-.3881767.089904-.2654866.059091-.1651793.058809-.155979.058865-.1469922.059258-.1382193.05999-.1296597c.010078-.0209085.020201-.0414693.030375-.0616868l.061722-.117221c.270632-.4904147.585676-.7547777 1.068894-.8712997l.114553-.0243009c.019609-.0036246.03948-.0070394.059622-.0102489l.124143-.0168282c.042498-.0048117.086132-.0088376.130959-.0121134l.138112-.0076122.145604-.0033245.153433.0007494c.026244.0004526.052828.001066.079759.0018358l.165812.00646.174486.0100001.183499.0133265.292886.0257596.315066.0320427 1.225051.1429306c-.165142.8291346-.317643 1.6482494-.492571 2.4619369l-.295647 1.3672984-.597065 2.7335008c-.397678 1.8224209-.790718 3.6457812-1.155674 5.4746731l-.280336 1.4394244-.023724.1444812-.021787.1567864-.018774.1659561c-.002818.0282493-.005465.05675-.007921.0854368l-.012235.1738319c-.031878.5834001.031315 1.1889874.368989 1.2941948.294103.0916323.972471-.0988167 1.65126-.3769243l.225753-.0956825c.074905-.0327986.149288-.0664126.222624-.1005755l.216337-.1038683c.035357-.0174969.07032-.0350643.104823-.052669l.200983-.1058072c.129611-.0704801.249765-.1404885.35625-.2078915l.126083-.0810387.218395-.1451545.163767-.112075.177228-.123979.289067-.2076501.206852-.1524623.21709-.163345.226405-.173936.234802-.1842351.242275-.1942426.248829-.2039581.254461-.2133821.259171-.2225141.262961-.2313544c.044092-.0392795.088303-.0789153.132615-.1189012l.266919-.2440678c.089272-.0827239.178791-.1667997.268406-.2521787l.268972-.2599978c.089649-.0879367.179239-.1771279.268617-.2675251l.26734-.2747607c.044399-.0463802.088707-.0930497.132904-.1400025l.066839.2786512.061321.2719868c.019483.0895758.037987.1780772.055455.2655405l.049241.2593123c.398816 2.221014.058227 3.7648798-2.04206 5.2703529-.977086.7003699-2.151405 1.3251745-3.259743 1.8789262l-.596423.295027-.417868.2042581-.249061.118292c-.040853.019083-.081381.0378488-.121588.0562964l-.237439.1068502c-.038945.0171676-.077579.0340133-.115907.0505367l-.226335.0952528-.219221.0874349-.212339.0795477-.205686.0715915-.199266.0635662c-1.634437.4960859-2.62408.148987-3.570233-1.221362l-.113369-.1693652c-.018872-.0290497-.037737-.058512-.056599-.0883876l-.113175-.1842294-.113335-.1942258c-.018915-.0332076-.037846-.0668347-.056799-.1008827l-.114007-.2093493-.114744-.2195182-.115712-.2297563c-.019379-.0391497-.038808-.078729-.058291-.1187391l-.117597-.245243c-.019722-.0417394-.039508-.0839125-.059364-.1265211-.543744.2367166-1.083233.486532-1.621664.7388787l-.807254.3790969c-1.345432.6305886-2.69425 1.2439724-4.096426 1.6750306-4.986468 1.5342747-7.925992-.649614-7.915724-5.9354513.018682-8.7560118 2.700096-16.7922713 6.813963-24.36762223.516221-.95062409 1.301154-1.79061339 2.096689-2.52998768 1.170264-1.08839569 2.769897-1.8306924 4.078392-.83748437zm-1.60575 3.71816341c-2.346376 2.45326408-3.464074 5.42935017-4.305145 8.52408657l-.124205.4650498-.120769.4665264-.118049.4677-.230789.9377078-.290412 1.1917294c-.139635.5686406-.28199 1.1361663-.432792 1.7001462l.093195-.1545389c.468973-.7713726.982035-1.5232818 1.501757-2.2722108l.736247-1.0599439.31378-.4576334.309174-.45965.202628-.3079631c.067-.1028924.133426-.2060366.199186-.3094733l.195187-.3112292c1.47968-2.393449 2.557599-4.9633596 2.102849-8.20775142zm11.22838-.63638147c1.343154.00083687 2.148883.71182186 2.177833 1.92128956.056271 2.3220778-1.306047 4.04547535-3.189887 4.05424263-1.284437.00626235-2.070185-.46090865-2.045312-1.9442496.037513-2.19056854 1.397793-4.03253316 3.057366-4.03128259z"/><path d="m16.4371837 23.665227c0-3.6237379 2.207676-6.3846811 5.6041007-6.3846811 3.2690587 0 5.6890112 2.2001266 5.6890112 6.0395632 0 4.0119955-2.3350419 6.6003797-5.8588325 6.6003797-3.3539693 0-5.4342794-2.6746637-5.4342794-6.2552618zm17.4491316-11.1300521h-6.3258409v3.2354803c-1.6982123-2.458965-3.9907989-3.7100174-6.8353046-3.7100174-3.2266034 0-5.8163771 1.1216332-7.726866 3.3217597-1.9104889 2.2001266-2.8869609 5.0042095-2.8869609 8.3259692 0 3.2354802.9340167 5.9532837 2.8020503 8.1534102 1.8255782 2.2001266 4.415352 3.27862 7.6844107 3.27862 2.8445056 0 5.4342794-1.3804716 6.9626705-3.4943187v13.11448h6.3258409z"/><path d="m52.6321842 12.5351749v11.8634276c0 3.27862-1.4010251 5.4356068-4.1606201 5.4356068-2.6746844 0-4.0332543-1.8118689-4.0332543-5.3924671v-11.9065673h-6.3258409v12.0359865c0 7.0317771 2.5897738 10.5692355 7.7693214 10.5692355 2.8445056 0 5.0946369-1.1647729 6.7503939-3.4943187v3.0197816h6.3258409v-22.1306849z"/><path d="m69.8921174 12.5351749h-6.3258409v22.1306849h6.3258409zm-5.9437431-3.27861998c.7217402.64709605 1.6982123.99221398 2.8445056.99221398 2.2501313 0 4.0332543-1.50989082 4.0332543-3.58059818 0-2.11384709-1.783123-3.66687761-4.0332543-3.66687761-1.1462933 0-2.1227654.34511789-2.8445056 1.03535368-1.5283911 1.38047157-1.5283911 3.88257629 0 5.21990813z"/><path d="m79.5100952 23.5358077c0-3.5805981 2.08031-6.2552618 5.4342794-6.2552618 3.5237905 0 5.8588325 2.5883842 5.8588325 6.6003797 0 3.8394366-2.4199526 6.0395632-5.6890113 6.0395632-3.3964246 0-5.6041006-2.7609432-5.6041006-6.3846811zm11.1232906-7.9808512c-1.5283911-2.1138471-4.1181648-3.4943187-6.9626705-3.4943187-3.2690587 0-5.8588325 1.0784934-7.6844107 3.27862-1.8680336 2.2001266-2.8020503 4.91793-2.8020503 8.1534102 0 3.3217597.9764721 6.1258426 2.8869609 8.3259692 1.9104889 2.2001266 4.5002626 3.3217597 7.726866 3.3217597 2.8445057 0 5.1370923-1.2510524 6.8353046-3.7100173v3.2354802h6.3258409v-31.19002959h-6.3258409z"/></g></g></svg>